SplineFontDB: 3.0
FontName: Comme-Regular
FullName: Comme Regular
FamilyName: Comme
Weight: Regular
Copyright: Digitized data Copyright (c) 2011-2014, vernon adams.
Version: 2
ItalicAngle: 0
UnderlinePosition: 0
UnderlineWidth: 0
Ascent: 1638
Descent: 410
UFOAscent: 1560
UFODescent: -556
LayerCount: 2
Layer: 0 0 "Back"  1
Layer: 1 0 "Fore"  0
OS2Version: 0
OS2_WeightWidthSlopeOnly: 0
OS2_UseTypoMetrics: 0
CreationTime: 1390865603
ModificationTime: 1390865630
PfmFamily: 0
TTFWeight: 400
TTFWidth: 5
LineGap: 0
VLineGap: 0
OS2TypoAscent: 2416
OS2TypoAOffset: 0
OS2TypoDescent: -512
OS2TypoDOffset: 0
OS2TypoLinegap: 0
OS2WinAscent: 2416
OS2WinAOffset: 0
OS2WinDescent: 512
OS2WinDOffset: 0
HheadAscent: 0
HheadAOffset: 1
HheadDescent: 0
HheadDOffset: 1
OS2Vendor: 'NeWT'
Lookup: 4 0 1 "'liga' Standard Ligatures lookup 0"  {"'liga' Standard Ligatures lookup 0-1"  } ['liga' ('DFLT' <'dflt' > 'grek' <'dflt' > 'latn' <'dflt' > ) ]
MarkAttachClasses: 1
DEI: 91125
LangName: 1033 "" "" "" "" "" "Version 2" "" "Comme is a trademark of Vernon Adams and may be registered in certain jurisdictions." "newtypography" "Vernon Adams" "" "newtypography.co.uk" "newtypography.co.uk" "Copyright (c) 2014, vernon adams.+AAoACgAA-This Font Software is licensed under the SIL Open Font License, Version 1.1.+AAoA-This license is available with a FAQ at:+AAoA-http://scripts.sil.org/OFL+AAoA" "http://scripts.sil.org/OFL" "" "Comme" "Regular" 
PickledData: "(dp1
S'public.glyphOrder'
p2
(S'A'
S'Agrave'
S'Aacute'
S'Acircumflex'
S'Atilde'
S'Adieresis'
S'Aring'
S'Amacron'
S'Abreve'
S'Aogonek'
S'uni01CD'
S'uni0200'
S'uni0202'
S'uni0226'
S'B'
S'uni1E02'
S'C'
S'Ccedilla'
S'Cacute'
S'Ccircumflex'
S'Cdotaccent'
S'Ccaron'
S'D'
S'Dcaron'
S'uni1E0A'
S'E'
S'Egrave'
S'Eacute'
S'Ecircumflex'
S'Edieresis'
S'Emacron'
S'Ebreve'
S'Edotaccent'
S'Eogonek'
S'Ecaron'
S'uni0204'
S'uni0206'
S'uni0228'
S'uni1EBC'
S'F'
S'uni1E1E'
S'G'
S'Gcircumflex'
S'Gbreve'
S'Gdotaccent'
S'Gcommaaccent'
S'Gcaron'
S'uni01F4'
S'H'

StartChar: A
Encoding: 65 65 0
Width: 1419
VWidth: 0
GlyphClass: 2
Flags: W
PickledData: "(dp1
S'org.pippin.gimp.org.kernagic'
p2
(dp3
S'lstem'
p4
I0
sS'rstem'
p5
I0
ssS'com.typemytype.robofont.layerData'
p6
(dp7
sS'org.robofab.postScriptHintData'
p8
(dp9
s."
AnchorPoint: "top" 706 1456 basechar 0
AnchorPoint: "ogonek" 1243 0 basechar 0
AnchorPoint: "bot" 708 0 basechar 0
LayerCount: 2
Fore
SplineSet
608 1456 m 257
 63 0 l 257
 255 0 l 257
 422 453 l 257
 995 453 l 257
 1163 0 l 257
 1356 0 l 257
 806 1456 l 257
 608 1456 l 257
467 588 m 257
 708 1268 l 257
 950 588 l 257
 467 588 l 257
EndSplineSet
EndChar

StartChar: AE
Encoding: 198 198 1
Width: 1606
VWidth: 0
GlyphClass: 2
Flags: W
PickledData: "(dp1
S'org.pippin.gimp.org.kernagic'
p2
(dp3
S'lstem'
p4
I0
sS'rstem'
p5
I0
ssS'com.typemytype.robofont.layerData'
p6
(dp7
sS'org.robofab.postScriptHintData'
p8
(dp9
s."
LayerCount: 2
Fore
SplineSet
780 595 m 257
 421 595 l 257
 780 1291 l 257
 780 595 l 257
683 1456 m 257
 -94 0 l 257
 111 0 l 257
 354 462 l 257
 780 462 l 257
 780 0 l 257
 1553 0 l 257
 1565 147 l 257
 961 147 l 257
 961 689 l 257
 1484 689 l 257
 1484 834 l 257
 961 834 l 257
 961 1311 l 257
 1542 1311 l 257
 1549 1456 l 257
 683 1456 l 257
EndSplineSet
EndChar

StartChar: B
Encoding: 66 66 13
Width: 1373
VWidth: 0
GlyphClass: 2
Flags: W
PickledData: "(dp1
S'org.pippin.gimp.org.kernagic'
p2
(dp3
S'lstem'
p4
I0
sS'rstem'
p5
I0
ssS'com.typemytype.robofont.layerData'
p6
(dp7
sS'org.robofab.postScriptHintData'
p8
(dp9
s."
AnchorPoint: "top" 658 1456 basechar 0
LayerCount: 2
Fore
SplineSet
557 -9 m 256
 1047 -9 1242 120 1242 432 c 256
 1242 612 1157 738 942 790 c 257
 1127 850 1190 965 1190 1098 c 256
 1190 1257 1155 1464 622 1464 c 256
 507 1464 368 1455 203 1434 c 257
 203 8 l 257
 335 -3 453 -9 557 -9 c 256
397 1314 m 257
 485 1323 564 1327 631 1327 c 256
 920 1327 1011 1246 1011 1085 c 256
 1011 889 853 851 668 851 c 258
 397 851 l 257
 397 1314 l 257
397 717 m 257
 657 717 l 258
 930 717 1049 635 1049 427 c 256
 1049 265 1015 135 590 135 c 256
 532 135 467 138 397 143 c 257
 397 717 l 257
EndSplineSet
EndChar

StartChar: C
Encoding: 67 67 14
Width: 1433
VWidth: 0
GlyphClass: 2
Flags: W
PickledData: "(dp1
S'org.pippin.gimp.org.kernagic'
p2
(dp3
S'lstem'
p4
I0
sS'rstem'
p5
I0
ssS'com.typemytype.robofont.layerData'
p6
(dp7
sS'org.robofab.postScriptHintData'
p8
(dp9
s."
AnchorPoint: "top" 775 1456 basechar 0
AnchorPoint: "bot" 791 1 basechar 0
LayerCount: 2
Fore
SplineSet
1341 1097 m 257
 1288 1352 1043 1478 801 1478 c 256
 412 1478 152 1205 152 729 c 256
 152 253 412 -20 801 -20 c 256
 1045 -20 1292 106 1345 361 c 257
 1205 412 l 257
 1189 412 l 257
 1153 252 997 133 814 133 c 256
 535 133 350 332 350 729 c 256
 350 1126 533 1324 814 1324 c 256
 997 1324 1149 1208 1185 1046 c 257
 1201 1046 l 257
 1341 1097 l 257
EndSplineSet
EndChar

StartChar: D
Encoding: 68 68 21
Width: 1500
VWidth: 0
GlyphClass: 2
Flags: W
PickledData: "(dp1
S'org.pippin.gimp.org.kernagic'
p2
(dp3
S'lstem'
p4
I0
sS'rstem'
p5
I0
ssS'com.typemytype.robofont.layerData'
p6
(dp7
sS'com.fontlab.hintData'
p8
(dp9
S'vhints'
p10
((dp11
S'position'
p12
I1280
sS'width'
p13
I122
stp14
sS'hhints'
p15
((dp16
g12
I0
sg13
I94
s(dp17
g12
I1355
sg13
I94
stp18
ssS'org.robofab.postScriptHintData'
p19
(dp20
s."
HStem: 0 94 1355 94
VStem: 1280 122
AnchorPoint: "top" 742 1456 basechar 0
AnchorPoint: "bot" 778 -1 basechar 0
AnchorPoint: "mid" 303 767 basechar 0
LayerCount: 2
Fore
SplineSet
203 10 m 257
 314 -4 416 -11 509 -11 c 256
 1138 -11 1347 297 1347 745 c 256
 1347 1175 1201 1462 581 1462 c 256
 471 1462 345 1453 203 1434 c 257
 203 10 l 257
397 135 m 257
 397 1313 l 257
 471 1321 537 1325 598 1325 c 256
 1053 1325 1154 1098 1154 740 c 256
 1154 383 1038 126 560 126 c 256
 510 126 455 129 397 135 c 257
EndSplineSet
EndChar

StartChar: Delta
Encoding: 916 916 24
Width: 1334
VWidth: 0
GlyphClass: 2
Flags: W
PickledData: "(dp1
S'org.pippin.gimp.org.kernagic'
p2
(dp3
S'lstem'
p4
I0
sS'rstem'
p5
I0
ssS'com.typemytype.robofont.layerData'
p6
(dp7
S'b'
(dp8
S'name'
p9
S'Delta'
p10
sS'lib'
p11
(dp12
sS'unicodes'
p13
(tsS'width'
p14
I1334
sS'contours'
p15
(tsS'components'
p16
(tsS'anchors'
p17
(tsssS'org.robofab.postScriptHintData'
p18
(dp19
s."
LayerCount: 2
Fore
SplineSet
264 152 m 257
 661 1302 l 257
 1063 152 l 257
 264 152 l 257
43 0 m 257
 1286 0 l 257
 747 1486 l 257
 574 1486 l 257
 43 0 l 257
EndSplineSet
EndChar

StartChar: E
Encoding: 69 69 25
Width: 1309
VWidth: 0
GlyphClass: 2
Flags: W
PickledData: "(dp1
S'org.pippin.gimp.org.kernagic'
p2
(dp3
S'lstem'
p4
I0
sS'rstem'
p5
I0
ssS'com.typemytype.robofont.layerData'
p6
(dp7
sS'org.robofab.postScriptHintData'
p8
(dp9
s."
AnchorPoint: "top" 738 1456 basechar 0
AnchorPoint: "ogonek" 892 0 basechar 0
AnchorPoint: "bot" 709 0 basechar 0
LayerCount: 2
Fore
SplineSet
203 1456 m 257
 203 0 l 257
 1166 0 l 257
 1178 148 l 257
 397 148 l 257
 397 680 l 257
 1097 680 l 257
 1097 827 l 257
 397 827 l 257
 397 1310 l 257
 1155 1310 l 257
 1162 1456 l 257
 203 1456 l 257
EndSplineSet
EndChar

StartChar: Eng
Encoding: 330 330 34
Width: 1517
VWidth: 0
GlyphClass: 2
Flags: W
PickledData: "(dp1
S'org.robofab.postScriptHintData'
p2
(dp3
s."
LayerCount: 2
Fore
SplineSet
1145 915 m 257
 1146 -2 l 258
 1146 -214 1099 -293 732 -293 c 257
 734 -434 l 257
 1150 -433 1321 -334 1321 -5 c 258
 1321 915 l 257
 1145 915 l 257
EndSplineSet
Refer: 70 78 N 1 0 0 1 0 0 2
EndChar

StartChar: Euro
Encoding: 8364 8364 37
Width: 1391
VWidth: 0
GlyphClass: 2
Flags: W
PickledData: "(dp1
S'org.pippin.gimp.org.kernagic'
p2
(dp3
S'lstem'
p4
I0
sS'rstem'
p5
I0
ssS'com.typemytype.robofont.layerData'
p6
(dp7
S'b'
(dp8
S'name'
p9
S'Euro'
p10
sS'lib'
p11
(dp12
sS'unicodes'
p13
(tsS'width'
p14
I1391
sS'contours'
p15
(tsS'components'
p16
(tsS'anchors'
p17
(tsssS'org.robofab.postScriptHintData'
p18
(dp19
s."
LayerCount: 2
Fore
SplineSet
-53 528 m 257
 808 528 l 257
 815 643 l 257
 216 643 l 257
 216 817 l 257
 815 817 l 257
 822 930 l 257
 -41 930 l 257
 -46 817 l 257
 122 817 l 257
 122 643 l 257
 -46 643 l 257
 -53 528 l 257
EndSplineSet
Refer: 14 67 N 1 0 0 1 -75 0 2
EndChar

StartChar: F
Encoding: 70 70 38
Width: 1211
VWidth: 0
GlyphClass: 2
Flags: W
PickledData: "(dp1
S'org.pippin.gimp.org.kernagic'
p2
(dp3
S'lstem'
p4
I0
sS'rstem'
p5
I705
ssS'com.typemytype.robofont.layerData'
p6
(dp7
sS'org.robofab.postScriptHintData'
p8
(dp9
s."
AnchorPoint: "top" 738 1456 basechar 0
LayerCount: 2
Fore
SplineSet
203 1456 m 257
 203 0 l 257
 397 0 l 257
 397 659 l 257
 1071 659 l 257
 1071 801 l 257
 397 801 l 257
 397 1307 l 257
 1160 1307 l 257
 1170 1456 l 257
 203 1456 l 257
EndSplineSet
EndChar

StartChar: G
Encoding: 71 71 39
Width: 1478
VWidth: 0
GlyphClass: 2
Flags: W
PickledData: "(dp1
S'org.pippin.gimp.org.kernagic'
p2
(dp3
S'lstem'
p4
I0
sS'rstem'
p5
I0
ssS'com.typemytype.robofont.layerData'
p6
(dp7
sS'org.robofab.postScriptHintData'
p8
(dp9
s."
AnchorPoint: "top" 799 1456 basechar 0
AnchorPoint: "bot" 805 1 basechar 0
LayerCount: 2
Fore
SplineSet
822 -20 m 256
 1022 -20 1184 14 1332 73 c 257
 1332 769 l 257
 837 769 l 257
 828 640 l 257
 1155 618 l 257
 1155 175 l 257
 1086 155 987 133 856 133 c 256
 487 133 350 366 350 737 c 256
 350 1089 522 1323 854 1323 c 256
 1036 1323 1160 1246 1223 1176 c 257
 1240 1176 l 257
 1336 1282 l 257
 1249 1393 1072 1476 848 1476 c 256
 409 1476 152 1188 152 736 c 256
 152 288 373 -20 822 -20 c 256
EndSplineSet
EndChar

StartChar: H
Encoding: 72 72 45
Width: 1541
VWidth: 0
GlyphClass: 2
Flags: W
PickledData: "(dp1
S'org.pippin.gimp.org.kernagic'
p2
(dp3
S'lstem'
p4
I0
sS'rstem'
p5
I0
ssS'com.typemytype.robofont.layerData'
p6
(dp7
sS'org.robofab.postScriptHintData'
p8
(dp9
s."
AnchorPoint: "top" 784 1456 basechar 0
LayerCount: 2
Fore
SplineSet
1140 673 m 257
 1140 -1 l 257
 1335 -1 l 257
 1335 1456 l 257
 1140 1456 l 257
 1140 825 l 257
 401 825 l 257
 401 1456 l 257
 207 1456 l 257
 207 -1 l 257
 401 -1 l 257
 401 673 l 257
 1140 673 l 257
EndSplineSet
EndChar

StartChar: Hbar
Encoding: 294 294 46
Width: 1486
VWidth: 0
GlyphClass: 2
Flags: W
PickledData: "(dp1
S'org.pippin.gimp.org.kernagic'
p2
(dp3
S'lstem'
p4
I0
sS'rstem'
p5
I0
ssS'com.typemytype.robofont.layerData'
p6
(dp7
sS'org.robofab.postScriptHintData'
p8
(dp9
s."
LayerCount: 2
Fore
SplineSet
63 1280 m 257
 63 1155 l 257
 1414 1155 l 257
 1414 1280 l 257
 63 1280 l 257
EndSplineSet
Refer: 45 72 N 1 0 0 1 0 0 2
EndChar

StartChar: I
Encoding: 73 73 48
Width: 973
VWidth: 0
GlyphClass: 2
Flags: W
PickledData: "(dp1
S'org.pippin.gimp.org.kernagic'
p2
(dp3
S'lstem'
p4
I0
sS'rstem'
p5
I0
ssS'com.typemytype.robofont.layerData'
p6
(dp7
sS'com.fontlab.hintData'
p8
(dp9
S'vhints'
p10
((dp11
S'position'
p12
I111
sS'width'
p13
I529
stp14
sS'hhints'
p15
((dp16
g12
I0
sg13
I86
s(dp17
g12
I1363
sg13
I86
stp18
ssS'org.robofab.postScriptHintData'
p19
(dp20
s."
HStem: 0 86 1363 86
VStem: 111 529
AnchorPoint: "top" 483 1456 basechar 0
AnchorPoint: "ogonek" 485 0 basechar 0
LayerCount: 2
Fore
SplineSet
191 1456 m 257
 191 1338 l 257
 385 1338 l 257
 385 118 l 257
 191 118 l 257
 191 -1 l 257
 772 -1 l 257
 772 118 l 257
 580 118 l 257
 580 1338 l 257
 772 1338 l 257
 772 1456 l 257
 191 1456 l 257
EndSplineSet
EndChar

StartChar: J
Encoding: 74 74 59
Width: 797
VWidth: 0
GlyphClass: 2
Flags: W
PickledData: "(dp1
S'org.pippin.gimp.org.kernagic'
p2
(dp3
S'lstem'
p4
I132
sS'rstem'
p5
I0
ssS'com.typemytype.robofont.layerData'
p6
(dp7
sS'org.robofab.postScriptHintData'
p8
(dp9
s."
AnchorPoint: "top" 473 1456 basechar 0
LayerCount: 2
Fore
SplineSet
370 1456 m 257
 370 30 l 258
 370 -146 364 -171 260 -214 c 258
 137 -266 l 257
 197 -412 l 257
 286 -380 l 257
 519 -295 565 -243 565 29 c 258
 565 1456 l 257
 370 1456 l 257
EndSplineSet
EndChar

StartChar: K
Encoding: 75 75 61
Width: 1319
VWidth: 0
GlyphClass: 2
Flags: W
PickledData: "(dp1
S'org.pippin.gimp.org.kernagic'
p2
(dp3
S'lstem'
p4
I0
sS'rstem'
p5
I851
ssS'com.typemytype.robofont.layerData'
p6
(dp7
sS'org.robofab.postScriptHintData'
p8
(dp9
s."
AnchorPoint: "top" 689 1456 basechar 0
AnchorPoint: "bot" 692 0 basechar 0
LayerCount: 2
Fore
SplineSet
1294 1456 m 257
 1082 1456 l 257
 397 761 l 257
 397 1456 l 257
 203 1456 l 257
 203 0 l 257
 397 0 l 257
 397 578 l 257
 555 732 l 257
 1114 0 l 257
 1332 0 l 257
 1332 19 l 257
 698 837 l 257
 1294 1436 l 257
 1294 1456 l 257
EndSplineSet
EndChar

StartChar: L
Encoding: 76 76 63
Width: 1103
VWidth: 0
GlyphClass: 2
Flags: W
PickledData: "(dp1
S'org.pippin.gimp.org.kernagic'
p2
(dp3
S'lstem'
p4
I0
sS'rstem'
p5
I597
ssS'com.typemytype.robofont.layerData'
p6
(dp7
sS'org.robofab.postScriptHintData'
p8
(dp9
s."
AnchorPoint: "top" 443 1456 basechar 0
AnchorPoint: "bot" 635 0 basechar 0
AnchorPoint: "mid" 331 747 basechar 0
LayerCount: 2
Fore
SplineSet
203 1456 m 257
 203 0 l 257
 1095 0 l 257
 1101 146 l 257
 397 146 l 257
 397 1456 l 257
 203 1456 l 257
EndSplineSet
EndChar

StartChar: M
Encoding: 77 77 69
Width: 1815
VWidth: 0
GlyphClass: 2
Flags: W
PickledData: "(dp1
S'org.pippin.gimp.org.kernagic'
p2
(dp3
S'lstem'
p4
I0
sS'rstem'
p5
I0
ssS'org.robofab.postScriptHintData'
p6
(dp7
sS'com.typemytype.robofont.layerData'
p8
(dp9
sS'com.fontlab.hintData'
p10
(dp11
S'vhints'
p12
((dp13
S'position'
p14
I185
sS'width'
p15
I166
s(dp16
g14
I214
sg15
I151
s(dp17
g14
I332
sg15
I33
s(dp18
g14
I1463
sg15
I149
s(dp19
g14
I1463
sg15
I39
s(dp20
g14
I1477
sg15
I164
stp21
ssS'com.typemytype.robofont.guides'
p22
((dp23
S'y'
I378
sS'x'
I548
sS'magnetic'
p24
I5
sS'angle'
p25
I0
sS'isGlobal'
p26
I00
stp27
s."
VStem: 185 166 214 151 332 33 1463 149 1463 39 1477 164
AnchorPoint: "top" 921 1456 basechar 0
LayerCount: 2
Fore
SplineSet
183 -1 m 257
 366 -1 l 257
 366 479 l 257
 375 1203 l 257
 828 173 l 257
 986 173 l 257
 1442 1193 l 257
 1450 482 l 257
 1450 -1 l 257
 1632 -1 l 257
 1632 486 l 257
 1608 1456 l 257
 1383 1456 l 257
 909 396 l 257
 438 1456 l 257
 207 1456 l 257
 183 485 l 257
 183 -1 l 257
EndSplineSet
EndChar

StartChar: N
Encoding: 78 78 70
Width: 1524
VWidth: 0
GlyphClass: 2
Flags: W
PickledData: "(dp1
S'org.pippin.gimp.org.kernagic'
p2
(dp3
S'lstem'
p4
I0
sS'rstem'
p5
I0
ssS'com.typemytype.robofont.layerData'
p6
(dp7
sS'org.robofab.postScriptHintData'
p8
(dp9
s."
AnchorPoint: "top" 788 1456 basechar 0
AnchorPoint: "bot" 774 0 basechar 0
LayerCount: 2
Fore
SplineSet
1146 1456 m 257
 1146 668 l 257
 1157 249 l 257
 397 1456 l 257
 203 1456 l 257
 203 0 l 257
 381 0 l 257
 381 740 l 257
 364 1194 l 257
 1119 0 l 257
 1321 0 l 257
 1321 1456 l 257
 1146 1456 l 257
EndSplineSet
EndChar

StartChar: O
Encoding: 79 79 76
Width: 1620
VWidth: 0
GlyphClass: 2
Flags: W
PickledData: "(dp1
S'org.pippin.gimp.org.kernagic'
p2
(dp3
S'lstem'
p4
I0
sS'rstem'
p5
I0
ssS'org.robofab.postScriptHintData'
p6
(dp7
sS'com.typemytype.robofont.layerData'
p8
(dp9
sS'com.fontlab.hintData'
p10
(dp11
S'vhints'
p12
((dp13
S'position'
p14
I150
sS'width'
p15
I122
s(dp16
g14
I1390
sg15
I122
stp17
sS'hhints'
p18
((dp19
g14
I-19
sg15
I96
s(dp20
g14
I1372
sg15
I96
stp21
ssS'com.typemytype.robofont.guides'
p22
(ts."
HStem: -19 96 1372 96
VStem: 150 122 1390 122
AnchorPoint: "top" 813 1456 basechar 0
AnchorPoint: "ogonek" 892 1 basechar 0
LayerCount: 2
Fore
SplineSet
1267 720 m 256
 1267 370 1148 134 811 134 c 256
 475 134 354 370 354 720 c 256
 354 1085 486 1322 813 1322 c 256
 1141 1322 1267 1083 1267 720 c 256
156 721 m 256
 156 267 365 -20 813 -20 c 256
 1256 -20 1464 272 1464 719 c 256
 1464 1183 1245 1476 814 1476 c 256
 374 1476 156 1185 156 721 c 256
EndSplineSet
EndChar

StartChar: OE
Encoding: 338 338 77
Width: 2355
VWidth: 0
GlyphClass: 2
Flags: W
PickledData: "(dp1
S'org.pippin.gimp.org.kernagic'
p2
(dp3
S'lstem'
p4
I0
sS'rstem'
p5
I0
ssS'com.typemytype.robofont.layerData'
p6
(dp7
S'b'
(dp8
S'name'
p9
S'OE'
p10
sS'lib'
p11
(dp12
sS'unicodes'
p13
(tsS'width'
p14
I2367
sS'contours'
p15
(tsS'components'
p16
(tsS'anchors'
p17
(tsssS'org.robofab.postScriptHintData'
p18
(dp19
s."
LayerCount: 2
Fore
SplineSet
1251 721 m 256
 1251 371 1132 133 792 133 c 256
 452 133 331 371 331 721 c 256
 331 1086 463 1324 793 1324 c 256
 1125 1324 1251 1084 1251 721 c 256
140 722 m 256
 140 267 348 -20 793 -20 c 256
 998 -20 1157 52 1252 180 c 257
 1252 0 l 257
 2210 0 l 257
 2221 147 l 257
 1439 147 l 257
 1439 680 l 257
 2140 680 l 257
 2140 826 l 257
 1439 826 l 257
 1439 1311 l 257
 2198 1311 l 257
 2206 1456 l 257
 1252 1456 l 257
 1252 1270 l 257
 1156 1403 995 1477 794 1477 c 256
 358 1477 140 1187 140 722 c 256
EndSplineSet
EndChar

StartChar: Oslash
Encoding: 216 216 85
Width: 1620
VWidth: 0
GlyphClass: 2
Flags: W
PickledData: "(dp1
S'org.pippin.gimp.org.kernagic'
p2
(dp3
S'lstem'
p4
I0
sS'rstem'
p5
I0
ssS'com.typemytype.robofont.layerData'
p6
(dp7
sS'org.robofab.postScriptHintData'
p8
(dp9
s."
AnchorPoint: "top" 814 1456 basechar 0
LayerCount: 2
Fore
SplineSet
811 134 m 256
 761 134 715 139 675 150 c 257
 1089 1236 l 257
 1215 1136 1267 953 1267 720 c 256
 1267 370 1148 134 811 134 c 256
575 191 m 257
 415 279 354 471 354 720 c 256
 354 1085 486 1322 813 1322 c 256
 881 1322 940 1312 991 1293 c 257
 575 191 l 257
522 -251 m 257
 618 1 l 257
 677 -13 742 -20 813 -20 c 256
 1256 -20 1464 272 1464 719 c 256
 1464 1040 1359 1280 1151 1397 c 257
 1247 1650 l 257
 1141 1691 l 257
 1047 1441 l 257
 978 1465 900 1476 814 1476 c 256
 374 1476 156 1185 156 721 c 256
 156 383 272 137 516 34 c 257
 422 -215 l 257
 522 -251 l 257
EndSplineSet
EndChar

StartChar: P
Encoding: 80 80 88
Width: 1307
VWidth: 0
GlyphClass: 2
Flags: W
PickledData: "(dp1
S'org.pippin.gimp.org.kernagic'
p2
(dp3
S'lstem'
p4
I0
sS'rstem'
p5
I807
ssS'com.typemytype.robofont.layerData'
p6
(dp7
sS'org.robofab.postScriptHintData'
p8
(dp9
s."
AnchorPoint: "top" 692 1456 basechar 0
LayerCount: 2
Fore
SplineSet
203 1434 m 257
 203 0 l 257
 397 0 l 257
 397 636 l 257
 475 629 546 627 610 627 c 256
 1101 627 1213 811 1213 1063 c 256
 1213 1329 1066 1463 625 1463 c 256
 507 1463 367 1453 203 1434 c 257
397 774 m 257
 397 1313 l 257
 489 1322 569 1326 637 1326 c 256
 964 1326 1034 1228 1034 1059 c 256
 1034 876 969 764 611 764 c 256
 549 764 478 767 397 774 c 257
EndSplineSet
EndChar

StartChar: Q
Encoding: 81 81 89
Width: 1597
VWidth: 0
GlyphClass: 2
Flags: W
PickledData: "(dp1
S'org.pippin.gimp.org.kernagic'
p2
(dp3
S'lstem'
p4
I0
sS'rstem'
p5
I0
ssS'com.typemytype.robofont.layerData'
p6
(dp7
sS'org.robofab.postScriptHintData'
p8
(dp9
s."
LayerCount: 2
Fore
SplineSet
824 38 m 257
 826 29 1150 -428 1165 -441 c 257
 1290 -351 l 257
 1275 -338 998 53 990 66 c 257
 824 38 l 257
EndSplineSet
Refer: 76 79 N 1 0 0 1 0 0 2
EndChar

StartChar: R
Encoding: 82 82 90
Width: 1341
VWidth: 0
GlyphClass: 2
Flags: W
PickledData: "(dp1
S'org.pippin.gimp.org.kernagic'
p2
(dp3
S'lstem'
p4
I0
sS'rstem'
p5
I839
ssS'com.typemytype.robofont.layerData'
p6
(dp7
sS'com.fontlab.hintData'
p8
(dp9
S'vhints'
p10
((dp11
S'position'
p12
I1122
sS'width'
p13
I117
stp14
sS'hhints'
p15
((dp16
g12
I722
sg13
I96
s(dp17
g12
I1355
sg13
I94
stp18
ssS'org.robofab.postScriptHintData'
p19
(dp20
s."
HStem: 722 96 1355 94
VStem: 1122 117
AnchorPoint: "top" 709 1456 basechar 0
AnchorPoint: "bot" 716 0 basechar 0
LayerCount: 2
Fore
SplineSet
1237 1071 m 256
 1237 1349 1084 1464 662 1464 c 256
 535 1464 383 1454 203 1434 c 257
 203 0 l 257
 397 0 l 257
 397 662 l 257
 732 663 l 257
 1068 0 l 257
 1275 0 l 257
 1275 20 l 257
 926 685 l 257
 1121 734 1237 852 1237 1071 c 256
662 1326 m 256
 990 1326 1058 1239 1058 1067 c 256
 1058 874 979 796 651 796 c 258
 397 796 l 257
 397 1312 l 257
 500 1321 588 1326 662 1326 c 256
EndSplineSet
EndChar

StartChar: S
Encoding: 83 83 94
Width: 1222
VWidth: 0
GlyphClass: 2
Flags: W
PickledData: "(dp1
S'org.pippin.gimp.org.kernagic'
p2
(dp3
S'lstem'
p4
I185
sS'rstem'
p5
I826
ssS'com.typemytype.robofont.guides'
p6
((dp7
S'y'
I973
sS'x'
I1035
sS'magnetic'
p8
I5
sS'angle'
p9
F90
sS'isGlobal'
p10
I00
s(dp11
S'y'
I382
sS'x'
I75
sg8
I5
sg9
F90
sg10
I00
stp12
sS'com.typemytype.robofont.layerData'
p13
(dp14
sS'org.robofab.postScriptHintData'
p15
(dp16
s."
AnchorPoint: "top" 620 1474 basechar 0
AnchorPoint: "bot" 623 0 basechar 0
LayerCount: 2
Fore
SplineSet
917 384 m 256
 917 201 779 134 598 134 c 256
 465 134 326 181 232 274 c 257
 219 274 l 257
 112 171 l 257
 194 71 367 -20 599 -20 c 256
 843 -20 1102 79 1102 383 c 256
 1102 642 963 713 725 808 c 257
 520 891 l 257
 360 957 312 993 312 1106 c 256
 312 1273 449 1324 612 1324 c 256
 759 1324 886 1273 962 1185 c 257
 977 1185 l 257
 1081 1289 l 257
 980 1405 813 1476 620 1476 c 256
 360 1476 117 1393 117 1083 c 256
 117 879 233 816 435 734 c 258
 638 650 l 258
 852 561 917 522 917 384 c 256
EndSplineSet
EndChar

StartChar: T
Encoding: 84 84 100
Width: 1149
VWidth: 0
GlyphClass: 2
Flags: W
PickledData: "(dp1
S'org.pippin.gimp.org.kernagic'
p2
(dp3
S'lstem'
p4
I285
sS'rstem'
p5
I844
ssS'com.typemytype.robofont.layerData'
p6
(dp7
sS'org.robofab.postScriptHintData'
p8
(dp9
s."
AnchorPoint: "top" 578 1456 basechar 0
AnchorPoint: "bot" 579 0 basechar 0
AnchorPoint: "mid" 578 763 basechar 0
LayerCount: 2
Fore
SplineSet
6 1456 m 257
 6 1310 l 257
 476 1310 l 257
 476 -1 l 257
 671 -1 l 257
 671 1310 l 257
 1143 1310 l 257
 1143 1456 l 257
 6 1456 l 257
EndSplineSet
EndChar

StartChar: Thorn
Encoding: 222 222 105
Width: 1215
VWidth: 0
GlyphClass: 2
Flags: W
PickledData: "(dp1
S'org.pippin.gimp.org.kernagic'
p2
(dp3
S'lstem'
p4
I0
sS'rstem'
p5
I0
ssS'com.typemytype.robofont.layerData'
p6
(dp7
S'b'
(dp8
S'name'
p9
S'Thorn'
p10
sS'lib'
p11
(dp12
sS'unicodes'
p13
(tsS'width'
p14
I1192
sS'contours'
p15
(tsS'components'
p16
(tsS'anchors'
p17
(tsssS'org.robofab.postScriptHintData'
p18
(dp19
s."
LayerCount: 2
Fore
SplineSet
190 0 m 257
 385 0 l 257
 385 449 l 257
 567 449 l 258
 921 449 1049 580 1049 835 c 256
 1049 1097 861 1180 566 1180 c 258
 385 1180 l 257
 385 1493 l 257
 190 1493 l 257
 190 0 l 257
385 1041 m 257
 567 1041 l 258
 757 1041 856 996 856 831 c 256
 856 648 784 590 559 590 c 258
 385 590 l 257
 385 1041 l 257
EndSplineSet
EndChar

StartChar: U
Encoding: 85 85 106
Width: 1455
VWidth: 0
GlyphClass: 2
Flags: W
PickledData: "(dp1
S'org.pippin.gimp.org.kernagic'
p2
(dp3
S'lstem'
p4
I0
sS'rstem'
p5
I0
ssS'com.typemytype.robofont.layerData'
p6
(dp7
sS'org.robofab.postScriptHintData'
p8
(dp9
s."
AnchorPoint: "top" 736 1456 basechar 0
AnchorPoint: "ogonek" 863 19 basechar 0
AnchorPoint: "bot" 723 1 basechar 0
LayerCount: 2
Fore
SplineSet
1085 1457 m 257
 1085 547 l 258
 1085 277 978 135 725 135 c 256
 463 135 365 277 365 547 c 258
 365 1457 l 257
 170 1457 l 257
 170 542 l 258
 170 209 335 -20 725 -20 c 256
 1111 -20 1280 214 1280 539 c 258
 1280 1457 l 257
 1085 1457 l 257
EndSplineSet
EndChar

StartChar: V
Encoding: 86 86 117
Width: 1442
VWidth: 0
GlyphClass: 2
Flags: W
PickledData: "(dp1
S'org.pippin.gimp.org.kernagic'
p2
(dp3
S'lstem'
p4
I0
sS'rstem'
p5
I0
ssS'com.typemytype.robofont.layerData'
p6
(dp7
sS'org.robofab.postScriptHintData'
p8
(dp9
s."
LayerCount: 2
Fore
SplineSet
624 -1 m 257
 803 -1 l 257
 1365 1456 l 257
 1158 1456 l 257
 1010 1045 858 638 715 222 c 257
 574 639 422 1045 274 1456 c 257
 77 1456 l 257
 624 -1 l 257
EndSplineSet
EndChar

StartChar: W
Encoding: 87 87 118
Width: 1979
VWidth: 0
GlyphClass: 2
Flags: W
PickledData: "(dp1
S'org.pippin.gimp.org.kernagic'
p2
(dp3
S'lstem'
p4
I0
sS'rstem'
p5
I0
ssS'com.typemytype.robofont.layerData'
p6
(dp7
sS'org.robofab.postScriptHintData'
p8
(dp9
s."
AnchorPoint: "top" 1001 1456 basechar 0
AnchorPoint: "bot" 996 0 basechar 0
LayerCount: 2
Fore
SplineSet
999 1191 m 257
 1337 0 l 257
 1524 0 l 257
 1902 1456 l 257
 1714 1456 l 257
 1428 246 l 257
 1089 1427 l 257
 907 1427 l 257
 565 259 l 257
 251 1456 l 257
 77 1456 l 257
 464 0 l 257
 648 0 l 257
 999 1191 l 257
EndSplineSet
EndChar

StartChar: X
Encoding: 88 88 123
Width: 1291
VWidth: 0
GlyphClass: 2
Flags: W
PickledData: "(dp1
S'org.pippin.gimp.org.kernagic'
p2
(dp3
S'lstem'
p4
I0
sS'rstem'
p5
I0
ssS'com.typemytype.robofont.layerData'
p6
(dp7
sS'org.robofab.postScriptHintData'
p8
(dp9
s."
LayerCount: 2
Fore
SplineSet
750 730 m 257
 1228 1456 l 257
 1020 1456 l 257
 649 882 l 257
 267 1456 l 257
 52 1456 l 257
 528 738 l 257
 46 -1 l 257
 245 -1 l 257
 632 581 l 257
 1018 -1 l 257
 1236 -1 l 257
 750 730 l 257
EndSplineSet
EndChar

StartChar: Y
Encoding: 89 89 124
Width: 1364
VWidth: 0
GlyphClass: 2
Flags: W
PickledData: "(dp1
S'org.pippin.gimp.org.kernagic'
p2
(dp3
S'lstem'
p4
I0
sS'rstem'
p5
I0
ssS'com.typemytype.robofont.layerData'
p6
(dp7
sS'org.robofab.postScriptHintData'
p8
(dp9
s."
AnchorPoint: "top" 683 1456 basechar 0
LayerCount: 2
Fore
SplineSet
781 514 m 257
 1288 1456 l 257
 1094 1456 l 257
 683 684 l 257
 260 1456 l 257
 76 1456 l 257
 587 517 l 257
 587 0 l 257
 781 0 l 257
 781 514 l 257
EndSplineSet
EndChar

StartChar: Z
Encoding: 90 90 129
Width: 1190
VWidth: 0
GlyphClass: 2
Flags: W
PickledData: "(dp1
S'org.pippin.gimp.org.kernagic'
p2
(dp3
S'lstem'
p4
I0
sS'rstem'
p5
I0
ssS'com.typemytype.robofont.layerData'
p6
(dp7
sS'org.robofab.postScriptHintData'
p8
(dp9
s."
AnchorPoint: "top" 666 1456 basechar 0
AnchorPoint: "bot" 649 0 basechar 0
LayerCount: 2
Fore
SplineSet
92 0 m 257
 1124 0 l 257
 1130 146 l 257
 314 146 l 257
 1122 1324 l 257
 1116 1456 l 257
 122 1456 l 257
 124 1311 l 257
 905 1311 l 257
 92 133 l 257
 92 0 l 257
EndSplineSet
EndChar

StartChar: a
Encoding: 97 97 133
Width: 1120
VWidth: 0
GlyphClass: 2
Flags: W
PickledData: "(dp1
S'org.pippin.gimp.org.kernagic'
p2
(dp3
S'lstem'
p4
I0
sS'rstem'
p5
I0
ssS'org.robofab.postScriptHintData'
p6
(dp7
sS'com.typemytype.robofont.layerData'
p8
(dp9
sS'com.fontlab.hintData'
p10
(dp11
S'vhints'
p12
((dp13
S'position'
p14
I126
sS'width'
p15
I120
s(dp16
g14
I842
sg15
I32
s(dp17
g14
I875
sg15
I86
stp18
sS'hhints'
p19
((dp20
g14
I-15
sg15
I92
s(dp21
g14
I535
sg15
I82
s(dp22
g14
I983
sg15
I92
stp23
ssS'com.typemytype.robofont.guides'
p24
(ts."
HStem: -15 92 535 82 983 92
VStem: 126 120 842 32 875 86
AnchorPoint: "top" 562 1083 basechar 0
AnchorPoint: "ogonek" 899 1 basechar 0
AnchorPoint: "bot" 498 1 basechar 0
LayerCount: 2
Fore
SplineSet
490 109 m 256
 376 109 286 156 286 292 c 256
 286 417 356 481 577 481 c 258
 788 480 l 257
 788 253 l 257
 721 167 618 109 490 109 c 256
113 294 m 256
 113 83 255 -20 462 -20 c 256
 610 -20 718 30 804 133 c 257
 817 0 l 257
 969 0 l 257
 969 705 l 258
 969 998 799 1106 556 1106 c 256
 412 1106 260 1073 151 1004 c 257
 204 866 l 257
 307 936 448 968 551 968 c 256
 709 968 788 894 788 720 c 258
 788 595 l 257
 556 598 l 257
 544 598 l 258
 244 598 113 486 113 294 c 256
EndSplineSet
EndChar

StartChar: acute
Encoding: 180 180 137
Width: 732
VWidth: 0
GlyphClass: 4
Flags: W
PickledData: "(dp1
S'org.robofab.postScriptHintData'
p2
(dp3
sS'com.typemytype.robofont.layerData'
p4
(dp5
s."
AnchorPoint: "top" 355 1082 mark 0
LayerCount: 2
Fore
SplineSet
292 1209 m 257
 411 1209 l 257
 710 1586 l 257
 488 1586 l 257
 292 1209 l 257
EndSplineSet
EndChar

StartChar: ae
Encoding: 230 230 139
Width: 1657
VWidth: 0
GlyphClass: 2
Flags: W
PickledData: "(dp1
S'org.pippin.gimp.org.kernagic'
p2
(dp3
S'lstem'
p4
I0
sS'rstem'
p5
I0
ssS'com.typemytype.robofont.layerData'
p6
(dp7
sS'com.fontlab.hintData'
p8
(dp9
S'vhints'
p10
((dp11
S'position'
p12
I126
sS'width'
p13
I119
s(dp14
g12
I817
sg13
I117
s(dp15
g12
I817
sg13
I82
s(dp16
g12
I1556
sg13
I98
stp17
sS'hhints'
p18
((dp19
g12
I-14
sg13
I98
s(dp20
g12
I518
sg13
I82
s(dp21
g12
I983
sg13
I92
stp22
ssS'org.robofab.postScriptHintData'
p23
(dp24
s."
HStem: -14 98 518 82 983 92
VStem: 126 119 817 117 817 82 1556 98
AnchorPoint: "top" 910 1082 basechar 0
LayerCount: 2
Fore
SplineSet
1216 968 m 256
 1371 968 1426 873 1426 757 c 256
 1426 673 1392 597 1107 597 c 256
 1051 597 986 600 909 606 c 257
 924 850 1033 968 1216 968 c 256
738 357 m 256
 732 197 610 109 439 109 c 256
 348 109 234 153 234 294 c 256
 234 417 283 509 503 509 c 256
 545 509 660 504 737 495 c 256
 737 493 737 361 738 357 c 256
1587 775 m 256
 1587 957 1457 1102 1212 1102 c 256
 1059 1102 929 1045 849 899 c 257
 804 1048 681 1102 504 1102 c 256
 333 1102 210 1057 82 972 c 257
 151 857 l 257
 275 938 407 965 508 965 c 256
 666 965 738 899 738 716 c 258
 738 613 l 257
 656 623 529 626 481 626 c 256
 172 626 62 489 62 294 c 256
 62 91 193 -11 385 -20 c 257
 557 -20 737 35 826 205 c 257
 901 58 1043 -20 1227 -20 c 256
 1379 -20 1507 25 1597 87 c 257
 1545 207 l 257
 1456 156 1375 115 1249 115 c 256
 1060 115 925 208 907 481 c 257
 989 476 1068 471 1141 471 c 256
 1399 471 1587 525 1587 775 c 256
EndSplineSet
EndChar

StartChar: ampersand
Encoding: 38 38 144
Width: 1420
VWidth: 0
GlyphClass: 2
Flags: W
PickledData: "(dp1
S'org.pippin.gimp.org.kernagic'
p2
(dp3
S'lstem'
p4
I0
sS'rstem'
p5
I0
ssS'com.typemytype.robofont.layerData'
p6
(dp7
sS'com.fontlab.hintData'
p8
(dp9
S'vhints'
p10
((dp11
S'position'
p12
I135
sS'width'
p13
I121
s(dp14
g12
I312
sg13
I105
s(dp15
g12
I917
sg13
I110
stp16
sS'hhints'
p17
((dp18
g12
I-19
sg13
I96
s(dp19
g12
I1372
sg13
I96
stp20
ssS'org.robofab.postScriptHintData'
p21
(dp22
s."
HStem: -19 96 1372 96
VStem: 135 121 312 105 917 110
LayerCount: 2
Fore
SplineSet
600 1353 m 256
 730 1353 798 1284 798 1165 c 256
 798 1014 665 933 524 858 c 257
 412 989 376 1068 376 1162 c 256
 376 1276 473 1353 600 1353 c 256
94 393 m 256
 94 150 270 -20 551 -20 c 256
 746 -20 893 60 1008 171 c 257
 1202 -22 l 257
 1299 80 l 257
 1101 276 l 257
 1209 415 1282 575 1340 689 c 257
 1228 762 l 257
 1142 597 1068 472 998 378 c 257
 609 763 l 257
 781 856 957 958 957 1170 c 256
 957 1375 803 1482 600 1482 c 256
 381 1482 222 1354 222 1159 c 256
 222 1035 270 923 396 792 c 257
 209 697 94 599 94 393 c 256
575 122 m 256
 376 122 263 228 263 402 c 256
 263 544 344 621 482 695 c 257
 908 271 l 257
 800 160 698 122 575 122 c 256
EndSplineSet
EndChar

StartChar: apostrophemod
Encoding: 700 700 146
Width: 645
VWidth: 0
GlyphClass: 2
Flags: W
PickledData: "(dp1
S'org.robofab.postScriptHintData'
p2
(dp3
sS'com.typemytype.robofont.layerData'
p4
(dp5
s."
LayerCount: 2
Fore
SplineSet
115 1154 m 257
 257 1154 l 257
 257 1154 352 1502 368 1591 c 257
 180 1591 l 257
 175 1546 115 1154 115 1154 c 257
EndSplineSet
EndChar

StartChar: approxequal
Encoding: 8776 8776 147
Width: 1151
VWidth: 0
GlyphClass: 2
Flags: W
PickledData: "(dp1
S'org.pippin.gimp.org.kernagic'
p2
(dp3
S'lstem'
p4
I0
sS'rstem'
p5
I0
ssS'com.typemytype.robofont.layerData'
p6
(dp7
S'b'
(dp8
S'name'
p9
S'approxequal'
p10
sS'lib'
p11
(dp12
sS'unicodes'
p13
(tsS'width'
p14
I1136
sS'contours'
p15
(tsS'components'
p16
(tsS'anchors'
p17
(tsssS'org.robofab.postScriptHintData'
p18
(dp19
s."
LayerCount: 2
Fore
SplineSet
134 429 m 257
 177 519 256 591 344 591 c 256
 412 591 484 556 582 512 c 256
 669 471 742 442 814 442 c 256
 944 442 1020 522 1068 651 c 257
 1012 738 l 257
 974 648 895 579 815 579 c 256
 756 579 678 618 585 659 c 256
 484 706 426 730 346 730 c 256
 213 730 126 640 82 523 c 257
 134 429 l 257
134 768 m 257
 177 858 256 930 344 930 c 256
 412 930 484 895 582 851 c 256
 669 810 742 780 814 780 c 256
 944 780 1020 861 1068 989 c 257
 1012 1076 l 257
 974 987 895 918 815 918 c 256
 756 918 678 957 585 998 c 256
 484 1044 426 1068 346 1068 c 256
 213 1068 126 979 82 862 c 257
 134 768 l 257
EndSplineSet
EndChar

StartChar: asciicircum
Encoding: 94 94 150
Width: 1296
VWidth: 0
GlyphClass: 2
Flags: W
PickledData: "(dp1
S'org.pippin.gimp.org.kernagic'
p2
(dp3
S'lstem'
p4
I0
sS'rstem'
p5
I0
ssS'com.typemytype.robofont.layerData'
p6
(dp7
sS'org.robofab.postScriptHintData'
p8
(dp9
s."
LayerCount: 2
Fore
SplineSet
605 1456 m 257
 92 297 l 257
 270 297 l 257
 648 1170 l 257
 1024 297 l 257
 1204 297 l 257
 689 1456 l 257
 605 1456 l 257
EndSplineSet
EndChar

StartChar: asciitilde
Encoding: 126 126 151
Width: 1192
VWidth: 0
GlyphClass: 2
Flags: W
PickledData: "(dp1
S'org.pippin.gimp.org.kernagic'
p2
(dp3
S'lstem'
p4
I0
sS'rstem'
p5
I0
ssS'com.typemytype.robofont.layerData'
p6
(dp7
S'b'
(dp8
S'name'
p9
S'asciitilde'
p10
sS'lib'
p11
(dp12
sS'unicodes'
p13
(tsS'width'
p14
I1192
sS'contours'
p15
(tsS'components'
p16
(tsS'anchors'
p17
(tsssS'org.robofab.postScriptHintData'
p18
(dp19
s."
LayerCount: 2
Fore
SplineSet
356 649 m 256
 477 649 687 503 825 503 c 256
 950 503 1032 582 1081 703 c 257
 1030 798 l 257
 988 711 910 642 829 642 c 256
 769 642 691 680 597 721 c 256
 499 765 439 789 360 789 c 256
 230 789 144 701 98 591 c 257
 144 489 l 257
 189 576 268 649 356 649 c 256
EndSplineSet
EndChar

StartChar: asterisk
Encoding: 42 42 152
Width: 947
VWidth: 0
GlyphClass: 2
Flags: W
PickledData: "(dp1
S'org.pippin.gimp.org.kernagic'
p2
(dp3
S'lstem'
p4
I0
sS'rstem'
p5
I0
ssS'com.typemytype.robofont.layerData'
p6
(dp7
sS'org.robofab.postScriptHintData'
p8
(dp9
s."
LayerCount: 2
Fore
SplineSet
294 588 m 257
 472 925 l 257
 663 588 l 257
 714 620 749 642 800 674 c 257
 716 781 602 934 563 985 c 257
 908 1062 l 257
 864 1219 l 257
 525 1078 l 257
 561 1462 l 257
 393 1462 l 257
 427 1078 l 257
 91 1219 l 257
 46 1062 l 257
 387 985 l 257
 155 674 l 257
 294 588 l 257
EndSplineSet
EndChar

StartChar: at
Encoding: 64 64 153
Width: 1940
VWidth: 0
GlyphClass: 2
Flags: W
PickledData: "(dp1
S'org.pippin.gimp.org.kernagic'
p2
(dp3
S'lstem'
p4
I0
sS'rstem'
p5
I0
ssS'com.typemytype.robofont.layerData'
p6
(dp7
sS'org.robofab.postScriptHintData'
p8
(dp9
s."
LayerCount: 2
Fore
SplineSet
899 337 m 256
 778 337 729 433 729 580 c 256
 729 803 855 971 1036 971 c 256
 1065 971 1127 962 1171 952 c 257
 1129 696 l 257
 1097 492 1048 337 899 337 c 256
946 -195 m 256
 1139 -195 1335 -146 1463 -57 c 257
 1419 52 l 257
 1284 -34 1114 -65 949 -65 c 256
 533 -65 302 212 302 611 c 256
 302 1030 573 1359 1006 1359 c 256
 1433 1359 1640 1094 1640 761 c 256
 1640 487 1517 347 1402 347 c 256
 1330 347 1274 406 1274 488 c 256
 1274 614 1311 802 1339 1008 c 257
 1254 1052 1121 1083 1020 1083 c 256
 733 1083 580 825 580 573 c 256
 580 373 688 216 882 216 c 256
 1022 216 1115 324 1164 436 c 257
 1194 304 1337 279 1402 221 c 257
 1576 221 1777 401 1777 753 c 256
 1777 1202 1445 1486 1013 1486 c 256
 513 1486 147 1115 147 615 c 256
 147 111 474 -195 946 -195 c 256
EndSplineSet
EndChar

StartChar: b
Encoding: 98 98 155
Width: 1211
VWidth: 0
GlyphClass: 2
Flags: W
PickledData: "(dp1
S'org.pippin.gimp.org.kernagic'
p2
(dp3
S'lstem'
p4
I0
sS'rstem'
p5
I0
ssS'org.robofab.postScriptHintData'
p6
(dp7
sS'com.typemytype.robofont.layerData'
p8
(dp9
sS'com.fontlab.hintData'
p10
(dp11
S'vhints'
p12
((dp13
S'position'
p14
I193
sS'width'
p15
I125
s(dp16
g14
I193
sg15
I94
s(dp17
g14
I1018
sg15
I122
stp18
sS'hhints'
p19
((dp20
g14
I-19
sg15
I92
s(dp21
g14
I982
sg15
I92
stp22
ssS'com.typemytype.robofont.guides'
p23
(ts."
HStem: -19 92 982 92
VStem: 193 125 193 94 1018 122
AnchorPoint: "top" 660 1082 basechar 0
LayerCount: 2
Fore
SplineSet
626 115 m 256
 507 115 405 159 339 250 c 257
 339 559 l 258
 339 808 430 970 645 970 c 256
 848 970 912 792 912 542 c 256
 912 279 825 115 626 115 c 256
671 1106 m 256
 546 1106 412 1061 339 882 c 257
 346 1109 l 257
 346 1560 l 257
 164 1540 l 257
 164 0 l 257
 312 0 l 257
 323 115 l 257
 388 37 495 -20 637 -20 c 256
 932 -20 1098 205 1098 543 c 256
 1098 871 965 1106 671 1106 c 256
EndSplineSet
EndChar

StartChar: backslash
Encoding: 92 92 156
Width: 937
VWidth: 0
GlyphClass: 2
Flags: W
PickledData: "(dp1
S'org.pippin.gimp.org.kernagic'
p2
(dp3
S'lstem'
p4
I0
sS'rstem'
p5
I0
ssS'com.typemytype.robofont.layerData'
p6
(dp7
S'b'
(dp8
S'name'
p9
S'backslash'
p10
sS'lib'
p11
(dp12
sS'unicodes'
p13
(tsS'width'
p14
I937
sS'contours'
p15
(tsS'components'
p16
(tsS'anchors'
p17
(tsssS'org.robofab.postScriptHintData'
p18
(dp19
s."
LayerCount: 2
Fore
SplineSet
634 -17 m 257
 776 -17 l 257
 239 1479 l 257
 97 1479 l 257
 634 -17 l 257
EndSplineSet
EndChar

StartChar: bar
Encoding: 124 124 157
Width: 686
VWidth: 0
GlyphClass: 2
Flags: W
PickledData: "(dp1
S'org.pippin.gimp.org.kernagic'
p2
(dp3
S'lstem'
p4
I0
sS'rstem'
p5
I0
ssS'com.typemytype.robofont.layerData'
p6
(dp7
S'b'
(dp8
S'name'
p9
S'bar'
p10
sS'lib'
p11
(dp12
sS'unicodes'
p13
(tsS'width'
p14
I681
sS'contours'
p15
(tsS'components'
p16
(tsS'anchors'
p17
(tsssS'org.robofab.postScriptHintData'
p18
(dp19
s."
LayerCount: 2
Fore
SplineSet
263 1476 m 257
 263 -279 l 257
 414 -279 l 257
 414 1476 l 257
 263 1476 l 257
EndSplineSet
EndChar

StartChar: braceleft
Encoding: 123 123 158
Width: 862
VWidth: 0
GlyphClass: 2
Flags: W
PickledData: "(dp1
S'org.pippin.gimp.org.kernagic'
p2
(dp3
S'lstem'
p4
I0
sS'rstem'
p5
I0
ssS'com.typemytype.robofont.layerData'
p6
(dp7
sS'org.robofab.postScriptHintData'
p8
(dp9
s."
LayerCount: 2
Fore
SplineSet
734 -262 m 257
 734 -134 l 257
 585 -134 574 -105 574 97 c 258
 574 337 l 258
 574 509 531 585 376 612 c 257
 531 639 574 715 574 886 c 258
 574 1129 l 258
 574 1330 585 1359 734 1360 c 257
 734 1487 l 257
 440 1487 392 1436 392 1147 c 258
 392 968 l 258
 392 753 390 686 192 686 c 257
 192 538 l 257
 392 538 392 471 392 256 c 258
 392 78 l 258
 392 -211 440 -262 734 -262 c 257
EndSplineSet
EndChar

StartChar: braceright
Encoding: 125 125 159
Width: 862
VWidth: 0
GlyphClass: 2
Flags: W
PickledData: "(dp1
S'org.pippin.gimp.org.kernagic'
p2
(dp3
S'lstem'
p4
I0
sS'rstem'
p5
I0
ssS'com.typemytype.robofont.layerData'
p6
(dp7
sS'org.robofab.postScriptHintData'
p8
(dp9
s."
LayerCount: 2
Fore
SplineSet
126 -262 m 257
 420 -262 468 -211 468 78 c 258
 468 256 l 258
 468 471 468 538 669 538 c 257
 669 686 l 257
 471 686 468 753 468 968 c 258
 468 1147 l 258
 468 1436 420 1487 126 1487 c 257
 126 1360 l 257
 276 1359 286 1330 286 1129 c 258
 286 886 l 258
 286 715 329 639 484 612 c 257
 329 585 286 509 286 337 c 258
 286 97 l 258
 286 -105 276 -134 126 -134 c 257
 126 -262 l 257
EndSplineSet
EndChar

StartChar: bracketleft
Encoding: 91 91 160
Width: 823
VWidth: 0
GlyphClass: 2
Flags: W
PickledData: "(dp1
S'org.pippin.gimp.org.kernagic'
p2
(dp3
S'lstem'
p4
I0
sS'rstem'
p5
I0
ssS'com.typemytype.robofont.layerData'
p6
(dp7
sS'org.robofab.postScriptHintData'
p8
(dp9
s."
LayerCount: 2
Fore
SplineSet
218 -255 m 257
 680 -255 l 257
 680 -126 l 257
 401 -126 l 257
 401 1348 l 257
 680 1348 l 257
 680 1477 l 257
 218 1477 l 257
 218 -255 l 257
EndSplineSet
EndChar

StartChar: bracketright
Encoding: 93 93 161
Width: 965
VWidth: 0
GlyphClass: 2
Flags: W
PickledData: "(dp1
S'org.pippin.gimp.org.kernagic'
p2
(dp3
S'lstem'
p4
I0
sS'rstem'
p5
I0
ssS'com.typemytype.robofont.layerData'
p6
(dp7
sS'org.robofab.postScriptHintData'
p8
(dp9
s."
LayerCount: 2
Fore
SplineSet
288 -255 m 257
 750 -255 l 257
 750 1477 l 257
 288 1477 l 257
 288 1348 l 257
 568 1348 l 257
 568 -126 l 257
 288 -126 l 257
 288 -255 l 257
EndSplineSet
EndChar

StartChar: breve
Encoding: 728 728 162
Width: 874
VWidth: 0
GlyphClass: 4
Flags: W
PickledData: "(dp1
S'org.robofab.postScriptHintData'
p2
(dp3
sS'com.typemytype.robofont.layerData'
p4
(dp5
s."
AnchorPoint: "top" 427 1066 mark 0
LayerCount: 2
Fore
SplineSet
423 1288 m 256
 562 1288 670 1367 670 1532 c 257
 555 1532 l 257
 555 1441 487 1401 423 1401 c 256
 360 1401 296 1441 296 1532 c 257
 179 1532 l 257
 179 1367 285 1288 423 1288 c 256
EndSplineSet
EndChar

StartChar: breveinvertedcomb
Encoding: 785 785 163
Width: 797
VWidth: 0
GlyphClass: 4
Flags: W
PickledData: "(dp1
S'org.robofab.postScriptHintData'
p2
(dp3
sS'com.typemytype.robofont.layerData'
p4
(dp5
s."
AnchorPoint: "top" 411 1066 mark 0
LayerCount: 2
Fore
SplineSet
163 1288 m 257
 280 1288 l 257
 280 1378 344 1419 407 1419 c 256
 470 1419 539 1378 539 1288 c 257
 653 1288 l 257
 653 1452 545 1532 407 1532 c 256
 269 1532 163 1453 163 1288 c 257
EndSplineSet
EndChar

StartChar: brokenbar
Encoding: 166 166 164
Width: 663
VWidth: 0
GlyphClass: 2
Flags: W
PickledData: "(dp1
S'org.pippin.gimp.org.kernagic'
p2
(dp3
S'lstem'
p4
I0
sS'rstem'
p5
I0
ssS'com.typemytype.robofont.layerData'
p6
(dp7
S'b'
(dp8
S'name'
p9
S'brokenbar'
p10
sS'lib'
p11
(dp12
sS'unicodes'
p13
(tsS'width'
p14
I653
sS'contours'
p15
(tsS'components'
p16
(tsS'anchors'
p17
(tsssS'org.robofab.postScriptHintData'
p18
(dp19
s."
LayerCount: 2
Fore
SplineSet
267 1571 m 257
 267 819 l 257
 400 819 l 257
 400 1571 l 257
 267 1571 l 257
267 531 m 257
 267 -225 l 257
 400 -225 l 257
 400 531 l 257
 267 531 l 257
EndSplineSet
EndChar

StartChar: bullet
Encoding: 8226 8226 165
Width: 913
VWidth: 0
GlyphClass: 2
Flags: W
PickledData: "(dp1
S'org.pippin.gimp.org.kernagic'
p2
(dp3
S'lstem'
p4
I0
sS'rstem'
p5
I0
ssS'com.typemytype.robofont.layerData'
p6
(dp7
S'b'
(dp8
S'name'
p9
S'bullet'
p10
sS'lib'
p11
(dp12
sS'unicodes'
p13
(tsS'width'
p14
I908
sS'contours'
p15
(tsS'components'
p16
(tsS'anchors'
p17
(tsssS'org.robofab.postScriptHintData'
p18
(dp19
s."
LayerCount: 2
Fore
SplineSet
445 407 m 256
 614 407 767 531 767 741 c 256
 767 950 618 1071 451 1071 c 256
 282 1071 130 946 130 736 c 256
 130 528 278 407 445 407 c 256
EndSplineSet
EndChar

StartChar: c
Encoding: 99 99 166
Width: 1077
VWidth: 0
GlyphClass: 2
Flags: W
PickledData: "(dp1
S'org.pippin.gimp.org.kernagic'
p2
(dp3
S'lstem'
p4
I0
sS'rstem'
p5
I696
ssS'org.robofab.postScriptHintData'
p6
(dp7
sS'com.typemytype.robofont.layerData'
p8
(dp9
sS'com.fontlab.hintData'
p10
(dp11
S'vhints'
p12
((dp13
S'position'
p14
I128
sS'width'
p15
I120
stp16
sS'hhints'
p17
((dp18
g14
I-19
sg15
I92
s(dp19
g14
I982
sg15
I92
stp20
ssS'com.typemytype.robofont.guides'
p21
((dp22
S'y'
I417
sS'x'
I962
sS'magnetic'
p23
I5
sS'angle'
p24
F90
sS'isGlobal'
p25
I00
s(dp26
S'y'
I1020
sS'x'
I565
sg23
I5
sg24
F90
sg25
I00
s(dp27
S'y'
I994
sS'x'
I572
sg23
I5
sg24
F90
sg25
I00
stp28
s."
HStem: -19 92 982 92
VStem: 128 120
AnchorPoint: "top" 618 1083 basechar 0
AnchorPoint: "bot" 602 1 basechar 0
LayerCount: 2
Fore
SplineSet
868 272 m 257
 818 181 749 117 613 117 c 258
 611 117 l 258
 405 117 300 276 300 543 c 256
 300 811 406 969 613 969 c 256
 749 969 819 902 869 811 c 257
 882 811 l 257
 995 876 l 257
 948 986 843 1106 605 1106 c 256
 304 1106 113 888 113 543 c 256
 113 198 304 -20 605 -20 c 256
 843 -20 949 100 995 210 c 257
 881 272 l 257
 868 272 l 257
EndSplineSet
EndChar

StartChar: caron
Encoding: 711 711 168
Width: 899
VWidth: 0
GlyphClass: 4
Flags: W
PickledData: "(dp1
S'org.robofab.postScriptHintData'
p2
(dp3
sS'com.typemytype.robofont.layerData'
p4
(dp5
s."
AnchorPoint: "top" 444 1082 mark 0
LayerCount: 2
Fore
SplineSet
334 1238 m 257
 527 1238 l 257
 723 1585 l 257
 566 1585 l 257
 431 1356 l 257
 294 1585 l 257
 137 1585 l 257
 334 1238 l 257
EndSplineSet
EndChar

StartChar: caron.alt
Encoding: 65537 -1 169
Width: 735
VWidth: 0
GlyphClass: 4
Flags: W
PickledData: "(dp1
S'org.robofab.postScriptHintData'
p2
(dp3
sS'com.typemytype.robofont.layerData'
p4
(dp5
s."
AnchorPoint: "caron.alt" 216 1082 mark 0
LayerCount: 2
Fore
SplineSet
462 1159 m 257
 595 1159 l 257
 675 1542 l 257
 497 1542 l 257
 462 1159 l 257
EndSplineSet
EndChar

StartChar: cedilla
Encoding: 184 184 174
Width: 685
VWidth: 0
GlyphClass: 4
Flags: W
PickledData: "(dp1
S'org.robofab.postScriptHintData'
p2
(dp3
sS'com.typemytype.robofont.layerData'
p4
(dp5
s."
AnchorPoint: "bot" 402 11 mark 0
LayerCount: 2
Fore
SplineSet
354 -402 m 256
 497 -402 605 -326 605 -203 c 256
 605 -94 531 -40 436 -40 c 256
 403 -40 367 -46 331 -60 c 257
 332 -112 l 257
 353 -108 371 -107 387 -107 c 256
 472 -107 495 -153 495 -197 c 256
 495 -272 429 -311 348 -311 c 256
 310 -311 268 -303 227 -284 c 257
 196 -369 l 257
 246 -391 299 -402 354 -402 c 256
EndSplineSet
EndChar

StartChar: cent
Encoding: 162 162 175
Width: 1077
VWidth: 0
GlyphClass: 2
Flags: W
PickledData: "(dp1
S'org.pippin.gimp.org.kernagic'
p2
(dp3
S'lstem'
p4
I0
sS'rstem'
p5
I0
ssS'com.typemytype.robofont.layerData'
p6
(dp7
sS'org.robofab.postScriptHintData'
p8
(dp9
s."
LayerCount: 2
Fore
SplineSet
539 34 m 257
 539 -309 l 257
 655 -309 l 257
 673 34 l 257
 539 34 l 257
550 1388 m 257
 538 1060 l 257
 662 1060 l 257
 664 1388 l 257
 550 1388 l 257
EndSplineSet
Refer: 166 99 N 1 0 0 1 0 0 2
EndChar

StartChar: circumflex
Encoding: 710 710 176
Width: 886
VWidth: 0
GlyphClass: 4
Flags: W
PickledData: "(dp1
S'org.robofab.postScriptHintData'
p2
(dp3
sS'com.typemytype.robofont.layerData'
p4
(dp5
s."
AnchorPoint: "top" 434 1082 mark 0
LayerCount: 2
Fore
SplineSet
136 1251 m 257
 293 1251 l 257
 430 1480 l 257
 565 1251 l 257
 722 1251 l 257
 526 1598 l 257
 333 1598 l 257
 136 1251 l 257
EndSplineSet
EndChar

StartChar: colon
Encoding: 58 58 177
Width: 658
VWidth: 0
GlyphClass: 2
Flags: W
PickledData: "(dp1
S'org.pippin.gimp.org.kernagic'
p2
(dp3
S'lstem'
p4
I0
sS'rstem'
p5
I0
ssS'com.typemytype.robofont.layerData'
p6
(dp7
S'b'
(dp8
S'name'
p9
S'colon'
p10
sS'lib'
p11
(dp12
sS'unicodes'
p13
(tsS'width'
p14
I653
sS'contours'
p15
(tsS'components'
p16
(tsS'anchors'
p17
(tsssS'org.robofab.postScriptHintData'
p18
(dp19
s."
LayerCount: 2
Fore
SplineSet
326 -10 m 256
 409 -10 448 50 448 116 c 256
 448 181 409 243 326 243 c 256
 242 243 200 181 200 116 c 256
 200 50 243 -10 326 -10 c 256
326 833 m 256
 409 833 448 893 448 959 c 256
 448 1024 409 1086 326 1086 c 256
 242 1086 200 1024 200 959 c 256
 200 893 243 833 326 833 c 256
EndSplineSet
EndChar

StartChar: comma
Encoding: 44 44 178
Width: 629
VWidth: 0
GlyphClass: 2
Flags: W
PickledData: "(dp1
S'org.pippin.gimp.org.kernagic'
p2
(dp3
S'lstem'
p4
I0
sS'rstem'
p5
I0
ssS'com.typemytype.robofont.layerData'
p6
(dp7
sS'org.robofab.postScriptHintData'
p8
(dp9
s."
LayerCount: 2
Fore
SplineSet
193 -305 m 257
 300 -305 l 257
 418 148 l 257
 418 239 l 257
 234 239 l 257
 234 233 193 -305 193 -305 c 257
EndSplineSet
EndChar

StartChar: commaaccent
Encoding: 806 806 179
Width: 611
VWidth: 0
GlyphClass: 4
Flags: W
PickledData: "(dp1
S'org.robofab.postScriptHintData'
p2
(dp3
s."
AnchorPoint: "bot" 329 0 mark 0
LayerCount: 2
Fore
SplineSet
194 -523 m 257
 316 -523 l 257
 316 -523 416 -176 415 -134 c 257
 241 -134 l 257
 241 -203 194 -523 194 -523 c 257
EndSplineSet
EndChar

StartChar: commaturnedabovecomb
Encoding: 786 786 180
Width: 600
VWidth: 0
GlyphClass: 4
Flags: W
PickledData: "(dp1
S'org.robofab.postScriptHintData'
p2
(dp3
s."
AnchorPoint: "top" 296 1066 mark 0
LayerCount: 2
Fore
SplineSet
198 1304 m 257
 194 1282 l 257
 391 1282 l 257
 391 1351 423 1784 423 1784 c 257
 304 1784 l 257
 304 1784 198 1344 198 1304 c 257
EndSplineSet
EndChar

StartChar: copyright
Encoding: 169 169 181
Width: 1712
VWidth: 0
GlyphClass: 2
Flags: W
PickledData: "(dp1
S'org.pippin.gimp.org.kernagic'
p2
(dp3
S'lstem'
p4
I0
sS'rstem'
p5
I0
ssS'com.typemytype.robofont.layerData'
p6
(dp7
sS'org.robofab.postScriptHintData'
p8
(dp9
s."
LayerCount: 2
Fore
SplineSet
765 -23 m 256
 1152 -23 1533 241 1533 727 c 256
 1533 1216 1151 1479 765 1479 c 256
 382 1479 10 1216 10 727 c 256
 10 241 382 -23 765 -23 c 256
765 68 m 256
 431 68 114 302 114 727 c 256
 114 1153 431 1386 765 1386 c 256
 1101 1386 1421 1153 1421 727 c 256
 1421 303 1101 68 765 68 c 256
785 236 m 256
 885 236 983 263 1069 317 c 257
 1033 405 l 257
 948 353 870 335 790 335 c 256
 593 335 436 485 436 730 c 256
 436 959 592 1115 783 1115 c 256
 856 1115 948 1091 1022 1039 c 257
 1066 1129 l 257
 978 1187 880 1216 778 1216 c 256
 523 1216 308 1010 308 726 c 256
 308 434 528 236 785 236 c 256
EndSplineSet
EndChar

StartChar: currency
Encoding: 164 164 182
Width: 1159
VWidth: 0
GlyphClass: 2
Flags: W
PickledData: "(dp1
S'org.pippin.gimp.org.kernagic'
p2
(dp3
S'lstem'
p4
I0
sS'rstem'
p5
I0
ssS'com.typemytype.robofont.layerData'
p6
(dp7
S'b'
(dp8
S'name'
p9
S'currency'
p10
sS'lib'
p11
(dp12
sS'unicodes'
p13
(tsS'width'
p14
I1164
sS'contours'
p15
(tsS'components'
p16
(tsS'anchors'
p17
(tsssS'org.robofab.postScriptHintData'
p18
(dp19
s."
LayerCount: 2
Fore
SplineSet
877 721 m 256
 877 551 760 406 576 406 c 256
 393 406 275 550 275 721 c 256
 275 892 393 1038 576 1038 c 256
 759 1038 877 892 877 721 c 256
833 1043 m 257
 762 1102 673 1137 576 1137 c 256
 479 1137 389 1104 318 1044 c 257
 139 1217 l 257
 71 1149 l 257
 252 970 l 257
 199 897 173 812 173 721 c 256
 173 630 200 545 252 473 c 257
 72 297 l 257
 139 226 l 257
 318 400 l 257
 390 340 477 308 576 308 c 256
 674 308 762 341 833 399 c 257
 1014 225 l 257
 1078 296 l 257
 900 473 l 257
 952 544 979 628 979 721 c 256
 979 810 952 895 899 970 c 257
 1079 1146 l 257
 1014 1217 l 257
 833 1043 l 257
EndSplineSet
EndChar

StartChar: d
Encoding: 100 100 183
Width: 1203
VWidth: 0
GlyphClass: 2
Flags: W
PickledData: "(dp1
S'org.pippin.gimp.org.kernagic'
p2
(dp3
S'lstem'
p4
I0
sS'rstem'
p5
I0
ssS'com.typemytype.robofont.layerData'
p6
(dp7
sS'com.fontlab.hintData'
p8
(dp9
S'vhints'
p10
((dp11
S'position'
p12
I114
sS'width'
p13
I166
s(dp14
g12
I907
sg13
I161
s(dp15
g12
I930
sg13
I138
stp16
sS'hhints'
p17
((dp18
g12
I-19
sg13
I127
s(dp19
g12
I953
sg13
I127
stp20
ssS'org.robofab.postScriptHintData'
p21
(dp22
s."
HStem: -19 127 953 127
VStem: 114 166 907 161 930 138
AnchorPoint: "top" 533 1082 basechar 0
AnchorPoint: "caron.alt" 1135 1201 basechar 0
AnchorPoint: "mid" 964 1310 basechar 0
LayerCount: 2
Fore
SplineSet
598 115 m 256
 395 115 300 275 300 547 c 256
 300 813 398 970 597 970 c 256
 714 970 816 926 872 845 c 257
 872 230 l 257
 808 152 711 115 598 115 c 256
579 -20 m 256
 688 -20 808 25 887 118 c 257
 897 0 l 257
 1054 0 l 257
 1054 1560 l 257
 866 1540 l 257
 866 1153 l 257
 871 992 l 257
 810 1057 717 1103 592 1103 c 258
 584 1103 l 257
 578 1103 l 258
 287 1103 113 882 113 544 c 256
 113 210 275 -20 579 -20 c 256
EndSplineSet
EndChar

StartChar: dagger
Encoding: 8224 8224 184
Width: 1060
VWidth: 0
GlyphClass: 2
Flags: W
PickledData: "(dp1
S'org.pippin.gimp.org.kernagic'
p2
(dp3
S'lstem'
p4
I0
sS'rstem'
p5
I0
ssS'com.typemytype.robofont.layerData'
p6
(dp7
S'b'
(dp8
S'name'
p9
S'dagger'
p10
sS'lib'
p11
(dp12
sS'unicodes'
p13
(tsS'width'
p14
I1050
sS'contours'
p15
(tsS'components'
p16
(tsS'anchors'
p17
(tsssS'org.robofab.postScriptHintData'
p18
(dp19
s."
LayerCount: 2
Fore
SplineSet
461 1491 m 257
 461 1109 l 257
 173 1109 l 257
 173 998 l 257
 461 998 l 257
 461 97 l 257
 590 97 l 257
 590 998 l 257
 884 998 l 257
 884 1109 l 257
 589 1109 l 257
 589 1491 l 257
 461 1491 l 257
EndSplineSet
EndChar

StartChar: daggerdbl
Encoding: 8225 8225 185
Width: 1032
VWidth: 0
GlyphClass: 2
Flags: W
PickledData: "(dp1
S'org.pippin.gimp.org.kernagic'
p2
(dp3
S'lstem'
p4
I0
sS'rstem'
p5
I0
ssS'com.typemytype.robofont.layerData'
p6
(dp7
S'b'
(dp8
S'name'
p9
S'daggerdbl'
p10
sS'lib'
p11
(dp12
sS'unicodes'
p13
(tsS'width'
p14
I1022
sS'contours'
p15
(tsS'components'
p16
(tsS'anchors'
p17
(tsssS'org.robofab.postScriptHintData'
p18
(dp19
s."
LayerCount: 2
Fore
SplineSet
458 1473 m 257
 458 1089 l 257
 179 1089 l 257
 179 980 l 257
 458 980 l 257
 458 549 l 257
 179 549 l 257
 179 444 l 257
 458 444 l 257
 458 58 l 257
 588 58 l 257
 588 444 l 257
 864 444 l 257
 864 549 l 257
 589 549 l 257
 589 980 l 257
 865 980 l 257
 865 1089 l 257
 585 1089 l 257
 585 1473 l 257
 458 1473 l 257
EndSplineSet
EndChar

StartChar: dblgravecomb
Encoding: 783 783 186
Width: 890
VWidth: 0
GlyphClass: 4
Flags: W
PickledData: "(dp1
S'org.robofab.postScriptHintData'
p2
(dp3
sS'com.typemytype.robofont.layerData'
p4
(dp5
s."
AnchorPoint: "top" 484 1066 mark 0
LayerCount: 2
Fore
SplineSet
560 1247 m 257
 672 1247 l 257
 540 1598 l 257
 373 1598 l 257
 560 1247 l 257
285 1247 m 257
 393 1247 l 257
 244 1598 l 257
 60 1598 l 257
 285 1247 l 257
EndSplineSet
EndChar

StartChar: degree
Encoding: 176 176 189
Width: 875
VWidth: 0
GlyphClass: 2
Flags: W
PickledData: "(dp1
S'org.pippin.gimp.org.kernagic'
p2
(dp3
S'lstem'
p4
I0
sS'rstem'
p5
I0
ssS'com.typemytype.robofont.layerData'
p6
(dp7
sS'org.robofab.postScriptHintData'
p8
(dp9
s."
LayerCount: 2
Fore
SplineSet
429 890 m 256
 597 890 732 1020 732 1187 c 256
 732 1359 593 1479 429 1479 c 256
 268 1479 129 1359 129 1187 c 256
 129 1013 268 890 429 890 c 256
429 992 m 256
 326 992 243 1069 243 1186 c 256
 243 1301 328 1378 430 1378 c 256
 533 1378 618 1301 618 1186 c 256
 618 1070 533 992 429 992 c 256
EndSplineSet
EndChar

StartChar: dieresis
Encoding: 168 168 190
Width: 935
VWidth: 0
GlyphClass: 4
Flags: W
PickledData: "(dp1
S'org.robofab.postScriptHintData'
p2
(dp3
sS'com.typemytype.robofont.layerData'
p4
(dp5
s."
AnchorPoint: "top" 465 1082 mark 0
LayerCount: 2
Fore
SplineSet
674 1290 m 256
 747 1290 780 1338 780 1399 c 256
 780 1459 747 1508 674 1508 c 256
 599 1508 566 1459 566 1399 c 256
 566 1338 600 1290 674 1290 c 256
239 1290 m 256
 312 1290 345 1338 345 1399 c 256
 345 1459 312 1508 239 1508 c 256
 164 1508 132 1459 132 1399 c 256
 132 1338 166 1290 239 1290 c 256
EndSplineSet
EndChar

StartChar: divide
Encoding: 247 247 191
Width: 1174
VWidth: 0
GlyphClass: 2
Flags: W
PickledData: "(dp1
S'org.pippin.gimp.org.kernagic'
p2
(dp3
S'lstem'
p4
I0
sS'rstem'
p5
I0
ssS'com.typemytype.robofont.layerData'
p6
(dp7
sS'org.robofab.postScriptHintData'
p8
(dp9
s."
LayerCount: 2
Fore
SplineSet
485 1101 m 257
 485 891 l 257
 688 891 l 257
 688 1101 l 257
 485 1101 l 257
485 245 m 257
 485 31 l 257
 685 31 l 257
 685 245 l 257
 485 245 l 257
103 650 m 257
 103 505 l 257
 1066 505 l 257
 1066 650 l 257
 103 650 l 257
EndSplineSet
EndChar

StartChar: dollar
Encoding: 36 36 192
Width: 1222
VWidth: 0
GlyphClass: 2
Flags: W
PickledData: "(dp1
S'org.pippin.gimp.org.kernagic'
p2
(dp3
S'lstem'
p4
I0
sS'rstem'
p5
I0
ssS'com.typemytype.robofont.layerData'
p6
(dp7
S'b'
(dp8
S'name'
p9
S'dollar'
p10
sS'lib'
p11
(dp12
sS'unicodes'
p13
(tsS'width'
p14
I1221
sS'contours'
p15
(tsS'components'
p16
(tsS'anchors'
p17
(tsssS'org.robofab.postScriptHintData'
p18
(dp19
s."
LayerCount: 2
Fore
SplineSet
546 43 m 257
 546 -296 l 257
 668 -296 l 257
 683 43 l 257
 546 43 l 257
563 1766 m 257
 547 1427 l 257
 690 1427 l 257
 690 1766 l 257
 563 1766 l 257
EndSplineSet
Refer: 94 83 N 1 0 0 1 0 0 2
EndChar

StartChar: dotaccent
Encoding: 729 729 193
Width: 453
VWidth: 0
GlyphClass: 4
Flags: W
PickledData: "(dp1
S'org.robofab.postScriptHintData'
p2
(dp3
sS'com.typemytype.robofont.layerData'
p4
(dp5
s."
AnchorPoint: "top" 225 1082 mark 0
LayerCount: 2
Fore
SplineSet
358 1431 m 256
 358 1508 310 1556 226 1556 c 256
 142 1556 94 1508 94 1431 c 256
 94 1351 142 1302 226 1302 c 256
 310 1302 358 1351 358 1431 c 256
EndSplineSet
EndChar

StartChar: dotlessi
Encoding: 305 305 194
Width: 527
VWidth: 0
GlyphClass: 2
Flags: W
PickledData: "(dp1
S'org.pippin.gimp.org.kernagic'
p2
(dp3
S'lstem'
p4
I0
sS'rstem'
p5
I0
ssS'com.typemytype.robofont.layerData'
p6
(dp7
sS'org.robofab.postScriptHintData'
p8
(dp9
s."
AnchorPoint: "top" 280 1082 basechar 0
AnchorPoint: "ogonek" 282 0 basechar 0
LayerCount: 2
Fore
SplineSet
183 1082 m 257
 183 0 l 257
 365 0 l 257
 365 1082 l 257
 183 1082 l 257
EndSplineSet
EndChar

StartChar: dotlessj
Encoding: 65538 -1 195
Width: 595
VWidth: 0
GlyphClass: 2
Flags: W
PickledData: "(dp1
S'org.pippin.gimp.org.kernagic'
p2
(dp3
S'lstem'
p4
I0
sS'rstem'
p5
I0
ssS'com.typemytype.robofont.layerData'
p6
(dp7
sS'com.fontlab.hintData'
p8
(dp9
S'vhints'
p10
((dp11
S'position'
p12
I111
sS'width'
p13
I142
stp14
sS'hhints'
p15
((dp16
g12
I-479
sg13
I112
stp17
ssS'org.robofab.postScriptHintData'
p18
(dp19
s."
HStem: -479 112
VStem: 111 142
LayerCount: 2
Fore
SplineSet
241 1082 m 257
 241 19 l 258
 241 -167 237 -204 86 -238 c 258
 21 -253 l 257
 50 -395 l 257
 112 -385 l 257
 336 -350 423 -275 423 -12 c 258
 423 1082 l 257
 241 1082 l 257
EndSplineSet
EndChar

StartChar: e
Encoding: 101 101 196
Width: 1136
VWidth: 0
GlyphClass: 2
Flags: W
PickledData: "(dp1
S'org.pippin.gimp.org.kernagic'
p2
(dp3
S'lstem'
p4
I0
sS'rstem'
p5
I747
ssS'com.typemytype.robofont.layerData'
p6
(dp7
sS'com.fontlab.hintData'
p8
(dp9
S'hhints'
p10
((dp11
S'position'
p12
I-19
sS'width'
p13
I94
s(dp14
g12
I982
sg13
I92
stp15
ssS'org.robofab.postScriptHintData'
p16
(dp17
s."
HStem: -19 94 982 92
AnchorPoint: "top" 618 1082 basechar 0
AnchorPoint: "ogonek" 900 50 basechar 0
AnchorPoint: "bot" 624 1 basechar 0
LayerCount: 2
Fore
SplineSet
302 627 m 257
 321 839 443 971 618 971 c 256
 791 971 872 844 875 627 c 257
 302 627 l 257
1022 509 m 257
 1022 512 1031 589 1031 620 c 256
 1031 920 874 1106 609 1106 c 256
 336 1106 113 898 113 538 c 256
 113 191 338 -20 631 -20 c 256
 783 -20 912 25 1001 87 c 257
 959 206 l 257
 946 206 l 257
 857 155 778 115 654 115 c 256
 460 115 315 233 299 509 c 257
 1022 509 l 257
EndSplineSet
EndChar

StartChar: eight
Encoding: 56 56 204
Width: 1260
VWidth: 0
GlyphClass: 2
Flags: W
PickledData: "(dp1
S'org.pippin.gimp.org.kernagic'
p2
(dp3
S'lstem'
p4
I0
sS'rstem'
p5
I0
ssS'com.typemytype.robofont.layerData'
p6
(dp7
sS'org.robofab.postScriptHintData'
p8
(dp9
s."
LayerCount: 2
Fore
SplineSet
630 820 m 257
 452 862 359 962 359 1117 c 256
 359 1258 468 1341 630 1341 c 256
 793 1341 899 1259 899 1117 c 256
 899 962 810 862 630 820 c 257
630 120 m 256
 431 120 326 210 326 381 c 256
 326 557 457 657 630 697 c 257
 804 657 931 551 931 382 c 256
 931 205 835 120 630 120 c 256
630 -20 m 256
 896 -20 1108 106 1108 366 c 256
 1108 557 992 706 813 766 c 257
 970 825 1077 934 1077 1115 c 256
 1077 1348 891 1476 631 1476 c 256
 371 1476 181 1348 181 1115 c 256
 181 934 298 816 451 764 c 257
 263 698 151 570 151 366 c 256
 151 106 366 -20 630 -20 c 256
EndSplineSet
EndChar

StartChar: emdash
Encoding: 8212 8212 207
Width: 2128
VWidth: 0
GlyphClass: 2
Flags: W
PickledData: "(dp1
S'org.robofab.postScriptHintData'
p2
(dp3
sS'com.typemytype.robofont.layerData'
p4
(dp5
s."
LayerCount: 2
Fore
SplineSet
60 515 m 257
 2068 515 l 257
 2068 658 l 257
 60 658 l 257
 60 515 l 257
EndSplineSet
EndChar

StartChar: endash
Encoding: 8211 8211 208
Width: 1319
VWidth: 0
GlyphClass: 2
Flags: W
PickledData: "(dp1
S'org.pippin.gimp.org.kernagic'
p2
(dp3
S'lstem'
p4
I0
sS'rstem'
p5
I0
ssS'com.typemytype.robofont.layerData'
p6
(dp7
sS'org.robofab.postScriptHintData'
p8
(dp9
s."
LayerCount: 2
Fore
SplineSet
72 523 m 257
 1248 523 l 257
 1248 653 l 257
 72 653 l 257
 72 523 l 257
EndSplineSet
EndChar

StartChar: eng
Encoding: 331 331 209
Width: 1197
VWidth: 0
GlyphClass: 2
Flags: W
PickledData: "(dp1
S'org.robofab.postScriptHintData'
p2
(dp3
sS'com.typemytype.robofont.layerData'
p4
(dp5
s."
LayerCount: 2
Fore
SplineSet
874 126 m 257
 874 -11 l 257
 873 -227 837 -293 467 -293 c 257
 469 -434 l 257
 913 -433 1055 -343 1055 -14 c 258
 1055 126 l 257
 874 126 l 257
EndSplineSet
Refer: 277 110 N 1 0 0 1 0 0 2
EndChar

StartChar: equal
Encoding: 61 61 211
Width: 1070
VWidth: 0
GlyphClass: 2
Flags: W
PickledData: "(dp1
S'org.pippin.gimp.org.kernagic'
p2
(dp3
S'lstem'
p4
I0
sS'rstem'
p5
I0
ssS'com.typemytype.robofont.layerData'
p6
(dp7
S'b'
(dp8
S'name'
p9
S'equal'
p10
sS'lib'
p11
(dp12
sS'unicodes'
p13
(tsS'width'
p14
I1050
sS'contours'
p15
(tsS'components'
p16
(tsS'anchors'
p17
(tsssS'org.robofab.postScriptHintData'
p18
(dp19
s."
LayerCount: 2
Fore
SplineSet
128 570 m 257
 128 416 l 257
 948 416 l 257
 948 570 l 257
 128 570 l 257
128 957 m 257
 128 804 l 257
 948 804 l 257
 948 957 l 257
 128 957 l 257
EndSplineSet
EndChar

StartChar: estimated
Encoding: 8494 8494 212
Width: 1218
VWidth: 0
GlyphClass: 2
Flags: W
PickledData: "(dp1
S'org.robofab.postScriptHintData'
p2
(dp3
sS'com.typemytype.robofont.layerData'
p4
(dp5
S'b'
(dp6
S'name'
p7
S'estimated'
p8
sS'lib'
p9
(dp10
sS'unicodes'
p11
(tsS'width'
p12
I1223
sS'contours'
p13
(tsS'components'
p14
(tsS'anchors'
p15
(tsss."
LayerCount: 2
Fore
SplineSet
1004 600 m 257
 325 600 l 257
 340 861 487 1039 659 1039 c 256
 868 1039 1004 834 1004 600 c 257
102 540 m 256
 102 221 289 -20 671 -20 c 256
 878 -20 1013 70 1112 188 c 257
 1061 239 l 257
 963 134 851 53 671 53 c 256
 442 53 324 244 323 520 c 257
 1120 520 l 257
 1120 867 973 1099 653 1099 c 256
 331 1099 102 859 102 540 c 256
EndSplineSet
EndChar

StartChar: eth
Encoding: 240 240 213
Width: 1216
VWidth: 0
GlyphClass: 2
Flags: W
PickledData: "(dp1
S'org.pippin.gimp.org.kernagic'
p2
(dp3
S'lstem'
p4
I0
sS'rstem'
p5
I0
ssS'com.typemytype.robofont.layerData'
p6
(dp7
sS'org.robofab.postScriptHintData'
p8
(dp9
s."
LayerCount: 2
Fore
SplineSet
940 496 m 256
 940 267 826 117 605 117 c 256
 379 117 269 297 269 488 c 256
 269 692 390 845 599 845 c 256
 819 845 940 677 940 496 c 256
223 1578 m 257
 437 1373 l 257
 219 1287 l 257
 268 1169 l 257
 522 1270 l 257
 690 1103 790 971 842 876 c 257
 784 918 719 974 581 974 c 256
 300 974 101 780 101 489 c 256
 101 218 276 -20 599 -20 c 256
 930 -20 1097 198 1097 490 c 256
 1097 628 1063 768 1011 870 c 256
 943 999 843 1129 660 1329 c 257
 908 1424 l 257
 858 1539 l 257
 571 1428 l 257
 421 1578 l 257
 223 1578 l 257
EndSplineSet
EndChar

StartChar: exclam
Encoding: 33 33 214
Width: 715
VWidth: 0
GlyphClass: 2
Flags: W
PickledData: "(dp1
S'org.pippin.gimp.org.kernagic'
p2
(dp3
S'lstem'
p4
I0
sS'rstem'
p5
I0
ssS'com.typemytype.robofont.layerData'
p6
(dp7
sS'org.robofab.postScriptHintData'
p8
(dp9
s."
LayerCount: 2
Fore
SplineSet
348 -13 m 256
 429 -13 467 47 467 110 c 256
 467 170 429 231 348 231 c 256
 267 231 229 170 229 110 c 256
 229 49 267 -13 348 -13 c 256
312 433 m 257
 384 433 l 257
 437 1334 l 257
 437 1467 l 257
 253 1467 l 257
 253 1334 l 257
 312 433 l 257
EndSplineSet
EndChar

StartChar: f
Encoding: 102 102 216
Width: 761
VWidth: 0
GlyphClass: 2
Flags: W
PickledData: "(dp1
S'org.pippin.gimp.org.kernagic'
p2
(dp3
S'lstem'
p4
I182
sS'rstem'
p5
I417
ssS'com.typemytype.robofont.layerData'
p6
(dp7
sS'com.fontlab.hintData'
p8
(dp9
S'vhints'
p10
((dp11
S'position'
p12
I269
sS'width'
p13
I166
stp14
sS'hhints'
p15
((dp16
g12
I952
sg13
I89
s(dp17
g12
I1358
sg13
I122
stp18
ssS'org.robofab.postScriptHintData'
p19
(dp20
s."
HStem: 952 89 1358 122
VStem: 269 166
AnchorPoint: "top" 390 1456 basechar 0
LayerCount: 2
Fore
SplineSet
438 1082 m 257
 438 1162 l 258
 438 1342 473 1384 614 1384 c 256
 649 1384 713 1377 719 1376 c 257
 731 1500 l 257
 728 1501 662 1517 580 1517 c 258
 565 1517 l 258
 369 1517 256 1458 256 1162 c 258
 256 1079 l 257
 72 1065 l 257
 67 971 l 257
 256 971 l 257
 256 0 l 257
 438 0 l 257
 438 971 l 257
 712 971 l 257
 712 1082 l 257
 438 1082 l 257
EndSplineSet
EndChar

StartChar: five
Encoding: 53 53 217
Width: 1260
VWidth: 0
GlyphClass: 2
Flags: W
PickledData: "(dp1
S'org.pippin.gimp.org.kernagic'
p2
(dp3
S'lstem'
p4
I0
sS'rstem'
p5
I0
ssS'com.typemytype.robofont.layerData'
p6
(dp7
sS'org.robofab.postScriptHintData'
p8
(dp9
s."
LayerCount: 2
Fore
SplineSet
665 798 m 256
 845 798 943 638 943 472 c 256
 943 301 842 135 625 135 c 256
 478 135 380 191 301 300 c 257
 286 300 l 257
 180 197 l 257
 241 96 401 -20 627 -20 c 256
 971 -20 1136 226 1136 472 c 256
 1136 706 986 937 694 937 c 256
 581 937 497 899 427 836 c 257
 473 1311 l 257
 1027 1311 l 257
 1046 1456 l 257
 301 1456 l 257
 255 697 l 257
 403 673 l 257
 465 755 560 798 665 798 c 256
EndSplineSet
EndChar

StartChar: florin
Encoding: 402 402 219
Width: 1033
VWidth: 0
GlyphClass: 2
Flags: W
PickledData: "(dp1
S'org.robofab.postScriptHintData'
p2
(dp3
s."
LayerCount: 2
Fore
SplineSet
553 1244 m 258
 521 1077 l 257
 354 1077 l 257
 337 994 l 257
 508 994 l 257
 301 121 l 257
 264 -41 279 -179 110 -179 c 256
 83 -179 53 -175 16 -168 c 257
 -4 -255 l 257
 31 -266 66 -271 99 -271 c 256
 270 -271 414 -133 473 121 c 258
 678 994 l 257
 902 994 l 257
 918 1077 l 257
 696 1077 l 257
 731 1261 l 258
 751 1365 778 1460 875 1460 c 258
 877 1460 l 258
 937 1460 962 1406 964 1302 c 257
 1099 1302 l 257
 1098 1494 996 1552 868 1552 c 256
 679 1552 587 1420 553 1244 c 258
EndSplineSet
EndChar

StartChar: foundryicon
Encoding: 65540 -1 220
Width: 1347
VWidth: 0
GlyphClass: 2
Flags: W
PickledData: "(dp1
S'org.robofab.postScriptHintData'
p2
(dp3
s."
LayerCount: 2
Fore
SplineSet
280 2 m 257
 669 278 l 257
 1066 2 l 257
 922 461 l 257
 1313 755 l 257
 828 755 l 257
 669 1215 l 257
 519 755 l 257
 34 755 l 257
 423 461 l 257
 280 2 l 257
485 405 m 257
 485 672 l 257
 591 672 l 257
 761 523 l 257
 761 672 l 257
 867 672 l 257
 867 405 l 257
 761 405 l 257
 591 552 l 257
 591 405 l 257
 485 405 l 257
EndSplineSet
EndChar

StartChar: four
Encoding: 52 52 221
Width: 1260
VWidth: 0
GlyphClass: 2
Flags: W
PickledData: "(dp1
S'org.pippin.gimp.org.kernagic'
p2
(dp3
S'lstem'
p4
I0
sS'rstem'
p5
I0
ssS'com.typemytype.robofont.layerData'
p6
(dp7
sS'org.robofab.postScriptHintData'
p8
(dp9
s."
LayerCount: 2
Fore
SplineSet
316 517 m 257
 777 1234 l 257
 777 517 l 257
 316 517 l 257
777 0 m 257
 960 0 l 257
 960 372 l 257
 1121 372 l 257
 1133 518 l 257
 960 518 l 257
 960 1456 l 257
 761 1456 l 257
 134 518 l 257
 181 372 l 257
 777 372 l 257
 777 0 l 257
EndSplineSet
EndChar

StartChar: fraction
Encoding: 8260 8260 222
Width: 1043
VWidth: 0
GlyphClass: 2
Flags: W
PickledData: "(dp1
S'org.robofab.postScriptHintData'
p2
(dp3
s."
LayerCount: 2
Fore
SplineSet
128 0 m 257
 278 0 l 257
 929 1467 l 257
 776 1467 l 257
 128 0 l 257
EndSplineSet
EndChar

StartChar: g
Encoding: 103 103 223
Width: 1206
VWidth: 0
GlyphClass: 2
Flags: W
PickledData: "(dp1
S'org.pippin.gimp.org.kernagic'
p2
(dp3
S'lstem'
p4
I0
sS'rstem'
p5
I0
ssS'com.typemytype.robofont.layerData'
p6
(dp7
sS'com.fontlab.hintData'
p8
(dp9
S'vhints'
p10
((dp11
S'position'
p12
I128
sS'width'
p13
I122
s(dp14
g12
I977
sg13
I125
s(dp15
g12
I977
sg13
I36
stp16
sS'hhints'
p17
((dp18
g12
I-426
sg13
I101
s(dp19
g12
I0
sg13
I93
s(dp20
g12
I982
sg13
I92
stp21
ssS'org.robofab.postScriptHintData'
p22
(dp23
s."
HStem: -426 101 0 93 982 92
VStem: 128 122 977 125 977 36
AnchorPoint: "top" 603 1082 basechar 0
LayerCount: 2
Fore
SplineSet
598 115 m 256
 394 115 299 276 299 547 c 256
 299 811 399 970 596 970 c 256
 713 970 805 928 871 836 c 257
 871 232 l 257
 814 155 712 115 598 115 c 256
581 -18 m 256
 678 -18 793 8 874 93 c 257
 875 11 l 257
 875 4 l 258
 875 -263 760 -345 557 -345 c 256
 464 -345 351 -324 268 -289 c 257
 245 -289 l 257
 230 -431 l 257
 315 -462 436 -487 559 -487 c 256
 911 -487 1046 -310 1046 52 c 258
 1046 1082 l 257
 891 1082 l 257
 883 972 l 257
 821 1048 722 1106 585 1106 c 256
 297 1106 113 889 113 546 c 256
 113 198 285 -18 581 -18 c 256
EndSplineSet
EndChar

StartChar: germandbls
Encoding: 223 223 229
Width: 1283
VWidth: 0
GlyphClass: 2
Flags: W
PickledData: "(dp1
S'org.pippin.gimp.org.kernagic'
p2
(dp3
S'lstem'
p4
I0
sS'rstem'
p5
I0
ssS'com.typemytype.robofont.layerData'
p6
(dp7
S'b'
(dp8
S'name'
p9
S'germandbls'
p10
sS'lib'
p11
(dp12
sS'unicodes'
p13
(tsS'width'
p14
I1278
sS'contours'
p15
(tsS'components'
p16
(tsS'anchors'
p17
(tsssS'org.robofab.postScriptHintData'
p18
(dp19
s."
LayerCount: 2
Fore
SplineSet
852 -20 m 256
 1058 -20 1180 102 1180 297 c 256
 1180 597 790 705 790 818 c 256
 790 907 999 1015 999 1232 c 256
 999 1426 849 1552 621 1552 c 256
 323 1552 165 1374 165 1080 c 258
 165 1 l 257
 346 1 l 257
 346 1079 l 258
 346 1316 445 1410 627 1410 c 256
 759 1410 827 1339 827 1232 c 256
 827 1028 626 970 626 802 c 256
 626 604 1000 507 1000 295 c 256
 1000 204 948 124 825 124 c 256
 718 124 609 162 555 191 c 257
 509 57 l 257
 591 16 729 -20 852 -20 c 256
EndSplineSet
EndChar

StartChar: grave
Encoding: 96 96 230
Width: 929
VWidth: 0
GlyphClass: 4
Flags: W
PickledData: "(dp1
S'org.robofab.postScriptHintData'
p2
(dp3
sS'com.typemytype.robofont.layerData'
p4
(dp5
s."
AnchorPoint: "top" 474 1066 mark 0
LayerCount: 2
Fore
SplineSet
405 1209 m 257
 524 1209 l 257
 329 1586 l 257
 97 1586 l 257
 405 1209 l 257
EndSplineSet
EndChar

StartChar: greater
Encoding: 62 62 231
Width: 1107
VWidth: 0
GlyphClass: 2
Flags: W
PickledData: "(dp1
S'org.pippin.gimp.org.kernagic'
p2
(dp3
S'lstem'
p4
I0
sS'rstem'
p5
I0
ssS'com.typemytype.robofont.layerData'
p6
(dp7
S'b'
(dp8
S'name'
p9
S'greater'
p10
sS'lib'
p11
(dp12
sS'unicodes'
p13
(tsS'width'
p14
I1107
sS'contours'
p15
(tsS'components'
p16
(tsS'anchors'
p17
(tsssS'org.robofab.postScriptHintData'
p18
(dp19
s."
LayerCount: 2
Fore
SplineSet
94 1033 m 257
 817 648 l 257
 92 300 l 257
 92 145 l 257
 1024 595 l 257
 1024 689 l 257
 94 1185 l 257
 94 1033 l 257
EndSplineSet
EndChar

StartChar: greaterequal
Encoding: 8805 8805 232
Width: 1192
VWidth: 0
GlyphClass: 2
Flags: W
PickledData: "(dp1
S'org.pippin.gimp.org.kernagic'
p2
(dp3
S'lstem'
p4
I0
sS'rstem'
p5
I0
ssS'com.typemytype.robofont.layerData'
p6
(dp7
S'b'
(dp8
S'name'
p9
S'greaterequal'
p10
sS'lib'
p11
(dp12
sS'unicodes'
p13
(tsS'width'
p14
I1192
sS'contours'
p15
(tsS'components'
p16
(tsS'anchors'
p17
(tsssS'org.robofab.postScriptHintData'
p18
(dp19
s."
LayerCount: 2
Fore
SplineSet
129 8 m 257
 1063 8 l 257
 1063 138 l 257
 129 137 l 257
 129 8 l 257
157 234 m 257
 1045 715 l 257
 1045 800 l 257
 160 1309 l 257
 160 1161 l 257
 865 758 l 257
 157 380 l 257
 157 234 l 257
EndSplineSet
EndChar

StartChar: guillemotleft
Encoding: 171 171 233
Width: 999
VWidth: 0
GlyphClass: 2
Flags: W
PickledData: "(dp1
S'org.pippin.gimp.org.kernagic'
p2
(dp3
S'lstem'
p4
I0
sS'rstem'
p5
I0
ssS'com.typemytype.robofont.layerData'
p6
(dp7
S'b'
(dp8
S'name'
p9
S'guillemotleft'
p10
sS'lib'
p11
(dp12
sS'unicodes'
p13
(tsS'width'
p14
I994
sS'contours'
p15
(tsS'components'
p16
(tsS'anchors'
p17
(tsssS'org.robofab.postScriptHintData'
p18
(dp19
s."
LayerCount: 2
Fore
SplineSet
729 146 m 257
 889 146 l 257
 614 554 l 257
 895 959 l 257
 732 959 l 257
 442 551 l 257
 729 146 l 257
369 146 m 257
 529 146 l 257
 255 554 l 257
 536 959 l 257
 373 959 l 257
 82 551 l 257
 369 146 l 257
EndSplineSet
EndChar

StartChar: guillemotright
Encoding: 187 187 234
Width: 999
VWidth: 0
GlyphClass: 2
Flags: W
PickledData: "(dp1
S'org.pippin.gimp.org.kernagic'
p2
(dp3
S'lstem'
p4
I0
sS'rstem'
p5
I0
ssS'com.typemytype.robofont.layerData'
p6
(dp7
sS'org.robofab.postScriptHintData'
p8
(dp9
s."
LayerCount: 2
Fore
SplineSet
608 146 m 257
 896 552 l 257
 606 959 l 257
 443 959 l 257
 723 554 l 257
 449 146 l 257
 608 146 l 257
250 146 m 257
 537 552 l 257
 248 959 l 257
 85 959 l 257
 365 554 l 257
 90 146 l 257
 250 146 l 257
EndSplineSet
EndChar

StartChar: guilsinglleft
Encoding: 8249 8249 235
Width: 629
VWidth: 0
GlyphClass: 2
Flags: W
PickledData: "(dp1
S'org.robofab.postScriptHintData'
p2
(dp3
s."
LayerCount: 2
Fore
SplineSet
380 150 m 257
 541 150 l 257
 267 556 l 257
 549 961 l 257
 384 961 l 257
 97 553 l 257
 380 150 l 257
EndSplineSet
EndChar

StartChar: guilsinglright
Encoding: 8250 8250 236
Width: 766
VWidth: 0
GlyphClass: 2
Flags: W
PickledData: "(dp1
S'org.pippin.gimp.org.kernagic'
p2
(dp3
S'lstem'
p4
I0
sS'rstem'
p5
I0
ssS'com.typemytype.robofont.layerData'
p6
(dp7
S'b'
(dp8
S'name'
p9
S'guilsinglright'
p10
sS'lib'
p11
(dp12
sS'unicodes'
p13
(tsS'width'
p14
I766
sS'contours'
p15
(tsS'components'
p16
(tsS'anchors'
p17
(tsssS'org.robofab.postScriptHintData'
p18
(dp19
s."
LayerCount: 2
Fore
SplineSet
154 150 m 257
 317 150 l 257
 609 571 l 257
 314 1000 l 257
 150 1000 l 257
 432 571 l 257
 154 150 l 257
EndSplineSet
EndChar

StartChar: h
Encoding: 104 104 237
Width: 1209
VWidth: 0
GlyphClass: 2
Flags: W
PickledData: "(dp1
S'org.pippin.gimp.org.kernagic'
p2
(dp3
S'lstem'
p4
I0
sS'rstem'
p5
I0
ssS'com.typemytype.robofont.layerData'
p6
(dp7
sS'com.fontlab.hintData'
p8
(dp9
S'vhints'
p10
((dp11
S'position'
p12
I193
sS'width'
p13
I122
s(dp14
g12
I910
sg13
I122
stp15
sS'hhints'
p16
((dp17
g12
I982
sg13
I92
stp18
ssS'org.robofab.postScriptHintData'
p19
(dp20
s."
HStem: 982 92
VStem: 193 122 910 122
AnchorPoint: "top" 666 1397 basechar 0
AnchorPoint: "mid" 266 1281 basechar 0
LayerCount: 2
Fore
SplineSet
167 0 m 257
 348 0 l 257
 348 596 l 258
 348 784 423 970 663 970 c 256
 818 970 877 868 877 661 c 258
 877 0 l 257
 1061 0 l 257
 1061 670 l 258
 1061 947 933 1106 700 1106 c 256
 549 1106 417 1049 343 880 c 257
 349 1147 l 257
 349 1560 l 257
 167 1540 l 257
 167 0 l 257
EndSplineSet
EndChar

StartChar: hungarumlaut
Encoding: 733 733 240
Width: 813
VWidth: 0
GlyphClass: 4
Flags: W
PickledData: "(dp1
S'org.robofab.postScriptHintData'
p2
(dp3
sS'com.typemytype.robofont.layerData'
p4
(dp5
s."
AnchorPoint: "top" 346 1066 mark 0
LayerCount: 2
Fore
SplineSet
435 1247 m 257
 543 1247 l 257
 768 1598 l 257
 584 1598 l 257
 435 1247 l 257
157 1247 m 257
 268 1247 l 257
 455 1598 l 257
 288 1598 l 257
 157 1247 l 257
EndSplineSet
EndChar

StartChar: hyphen
Encoding: 45 45 241
Width: 862
VWidth: 0
GlyphClass: 4
Flags: W
PickledData: "(dp1
S'org.pippin.gimp.org.kernagic'
p2
(dp3
S'lstem'
p4
I0
sS'rstem'
p5
I0
ssS'com.typemytype.robofont.layerData'
p6
(dp7
sS'org.robofab.postScriptHintData'
p8
(dp9
s."
AnchorPoint: "mid" 408 607 mark 0
LayerCount: 2
Fore
SplineSet
172 525 m 257
 681 525 l 257
 681 666 l 257
 172 666 l 257
 172 525 l 257
EndSplineSet
EndChar

StartChar: infinity
Encoding: 8734 8734 253
Width: 1659
VWidth: 0
GlyphClass: 2
Flags: W
PickledData: "(dp1
S'org.pippin.gimp.org.kernagic'
p2
(dp3
S'lstem'
p4
I0
sS'rstem'
p5
I0
ssS'com.typemytype.robofont.layerData'
p6
(dp7
S'b'
(dp8
S'name'
p9
S'infinity'
p10
sS'lib'
p11
(dp12
sS'unicodes'
p13
(tsS'width'
p14
I1647
sS'contours'
p15
(tsS'components'
p16
(tsS'anchors'
p17
(tsssS'org.robofab.postScriptHintData'
p18
(dp19
s."
LayerCount: 2
Fore
SplineSet
1454 659 m 256
 1454 504 1384 382 1235 382 c 256
 1114 382 1025 469 907 633 c 257
 993 763 1100 882 1231 882 c 256
 1362 882 1454 779 1454 659 c 256
751 631 m 257
 660 496 549 382 424 382 c 256
 283 382 189 507 189 633 c 256
 189 768 276 882 417 882 c 256
 553 882 661 775 751 631 c 257
829 739 m 257
 709 903 585 1012 418 1012 c 256
 225 1012 71 854 71 654 c 256
 71 435 200 248 422 248 c 256
 585 248 712 361 829 520 c 257
 963 337 1085 248 1233 248 c 256
 1428 248 1581 407 1581 636 c 256
 1581 855 1457 1012 1235 1012 c 256
 1065 1012 941 898 829 739 c 257
EndSplineSet
EndChar

StartChar: integral
Encoding: 8747 8747 254
Width: 971
VWidth: 0
GlyphClass: 2
Flags: W
PickledData: "(dp1
S'org.pippin.gimp.org.kernagic'
p2
(dp3
S'lstem'
p4
I0
sS'rstem'
p5
I0
ssS'com.typemytype.robofont.layerData'
p6
(dp7
S'b'
(dp8
S'name'
p9
S'integral'
p10
sS'lib'
p11
(dp12
sS'unicodes'
p13
(tsS'width'
p14
I994
sS'contours'
p15
(tsS'components'
p16
(tsS'anchors'
p17
(tsssS'org.robofab.postScriptHintData'
p18
(dp19
s."
LayerCount: 2
Fore
SplineSet
509 1156 m 258
 509 -40 l 258
 509 -206 484 -309 354 -309 c 256
 327 -309 294 -305 258 -295 c 257
 258 -405 l 257
 301 -415 341 -419 375 -419 c 256
 561 -419 641 -282 641 -32 c 258
 641 1165 l 258
 641 1325 666 1423 782 1423 c 256
 809 1423 839 1418 874 1407 c 257
 874 1512 l 257
 827 1523 786 1528 751 1528 c 256
 575 1528 509 1401 509 1156 c 258
EndSplineSet
EndChar

StartChar: k
Encoding: 107 107 259
Width: 1098
VWidth: 0
GlyphClass: 2
Flags: W
PickledData: "(dp1
S'org.pippin.gimp.org.kernagic'
p2
(dp3
S'lstem'
p4
I0
sS'rstem'
p5
I671
ssS'com.typemytype.robofont.layerData'
p6
(dp7
sS'org.robofab.postScriptHintData'
p8
(dp9
s."
AnchorPoint: "bot" 596 0 basechar 0
LayerCount: 2
Fore
SplineSet
167 0 m 257
 349 0 l 257
 349 400 l 257
 470 504 l 257
 880 0 l 257
 1075 0 l 257
 1075 25 l 257
 599 591 l 257
 1043 1059 l 257
 1043 1082 l 257
 837 1082 l 257
 343 552 l 257
 349 765 l 257
 349 1560 l 257
 167 1540 l 257
 167 0 l 257
EndSplineSet
EndChar

StartChar: kgreenlandic
Encoding: 312 312 261
Width: 1089
VWidth: 0
GlyphClass: 2
Flags: W
PickledData: "(dp1
S'org.robofab.postScriptHintData'
p2
(dp3
s."
LayerCount: 2
Fore
SplineSet
152 0 m 257
 326 0 l 257
 326 393 l 257
 450 501 l 257
 861 0 l 257
 1053 0 l 257
 1053 22 l 257
 574 589 l 257
 1020 1059 l 257
 1020 1082 l 257
 819 1082 l 257
 320 544 l 257
 326 765 l 257
 326 1082 l 257
 152 1082 l 257
 152 0 l 257
EndSplineSet
EndChar

StartChar: l
Encoding: 108 108 262
Width: 635
VWidth: 0
GlyphClass: 2
Flags: W
PickledData: "(dp1
S'org.pippin.gimp.org.kernagic'
p2
(dp3
S'lstem'
p4
I0
sS'rstem'
p5
I238
ssS'com.typemytype.robofont.layerData'
p6
(dp7
sS'com.fontlab.hintData'
p8
(dp9
S'vhints'
p10
((dp11
S'position'
p12
I193
sS'width'
p13
I122
stp14
sS'hhints'
p15
((dp16
g12
I-11
sg13
I87
stp17
ssS'org.robofab.postScriptHintData'
p18
(dp19
s."
HStem: -11 87
VStem: 193 122
AnchorPoint: "top" 343 1502 basechar 0
AnchorPoint: "mid" 291 808 basechar 0
LayerCount: 2
Fore
SplineSet
468 -8 m 257
 539 -8 l 257
 553 124 l 257
 491 128 l 257
 370 137 350 151 350 312 c 258
 350 1560 l 257
 169 1540 l 257
 169 310 l 258
 169 45 270 -8 463 -8 c 258
 468 -8 l 257
EndSplineSet
EndChar

StartChar: less
Encoding: 60 60 267
Width: 1107
VWidth: 0
GlyphClass: 2
Flags: W
PickledData: "(dp1
S'org.pippin.gimp.org.kernagic'
p2
(dp3
S'lstem'
p4
I0
sS'rstem'
p5
I0
ssS'com.typemytype.robofont.layerData'
p6
(dp7
S'b'
(dp8
S'name'
p9
S'less'
p10
sS'lib'
p11
(dp12
sS'unicodes'
p13
(tsS'width'
p14
I1107
sS'contours'
p15
(tsS'components'
p16
(tsS'anchors'
p17
(tsssS'org.robofab.postScriptHintData'
p18
(dp19
s."
LayerCount: 2
Fore
SplineSet
1009 140 m 257
 1009 295 l 257
 277 648 l 257
 1009 1028 l 257
 1009 1180 l 257
 78 690 l 257
 78 597 l 257
 1009 140 l 257
EndSplineSet
EndChar

StartChar: lessequal
Encoding: 8804 8804 268
Width: 1192
VWidth: 0
GlyphClass: 2
Flags: W
PickledData: "(dp1
S'org.robofab.postScriptHintData'
p2
(dp3
sS'com.typemytype.robofont.layerData'
p4
(dp5
s."
LayerCount: 2
Fore
SplineSet
127 7 m 257
 1061 7 l 257
 1061 136 l 257
 127 137 l 257
 127 7 l 257
1034 244 m 257
 1034 389 l 257
 330 763 l 257
 1030 1161 l 257
 1030 1308 l 257
 146 805 l 257
 146 720 l 257
 1034 244 l 257
EndSplineSet
EndChar

StartChar: logicalnot
Encoding: 172 172 269
Width: 1244
VWidth: 0
GlyphClass: 2
Flags: W
PickledData: "(dp1
S'org.pippin.gimp.org.kernagic'
p2
(dp3
S'lstem'
p4
I0
sS'rstem'
p5
I0
ssS'com.typemytype.robofont.layerData'
p6
(dp7
sS'org.robofab.postScriptHintData'
p8
(dp9
s."
LayerCount: 2
Fore
SplineSet
104 809 m 257
 104 672 l 257
 935 672 l 257
 935 253 l 257
 1064 253 l 257
 1064 809 l 257
 104 809 l 257
EndSplineSet
EndChar

StartChar: lozenge
Encoding: 9674 9674 270
Width: 1169
VWidth: 0
GlyphClass: 2
Flags: W
PickledData: "(dp1
S'org.pippin.gimp.org.kernagic'
p2
(dp3
S'lstem'
p4
I0
sS'rstem'
p5
I0
ssS'com.typemytype.robofont.layerData'
p6
(dp7
S'b'
(dp8
S'name'
p9
S'lozenge'
p10
sS'lib'
p11
(dp12
sS'unicodes'
p13
(tsS'width'
p14
I1164
sS'contours'
p15
(tsS'components'
p16
(tsS'anchors'
p17
(tsssS'org.robofab.postScriptHintData'
p18
(dp19
s."
LayerCount: 2
Fore
SplineSet
901 764 m 257
 883 729 604 171 585 135 c 257
 567 170 289 731 271 766 c 257
 290 801 573 1355 592 1390 c 257
 610 1355 883 799 901 764 c 257
537 1579 m 257
 120 764 l 257
 530 -47 l 257
 634 -47 l 257
 1053 766 l 257
 642 1579 l 257
 537 1579 l 257
EndSplineSet
EndChar

StartChar: m
Encoding: 109 109 272
Width: 1832
VWidth: 0
GlyphClass: 2
Flags: W
PickledData: "(dp1
S'org.pippin.gimp.org.kernagic'
p2
(dp3
S'lstem'
p4
I0
sS'rstem'
p5
I0
ssS'com.typemytype.robofont.layerData'
p6
(dp7
sS'com.fontlab.hintData'
p8
(dp9
S'vhints'
p10
((dp11
S'position'
p12
I193
sS'width'
p13
I122
s(dp14
g12
I193
sg13
I98
s(dp15
g12
I845
sg13
I122
s(dp16
g12
I1483
sg13
I122
stp17
sS'hhints'
p18
((dp19
g12
I982
sg13
I92
stp20
ssS'org.robofab.postScriptHintData'
p21
(dp22
s."
HStem: 982 92
VStem: 193 122 193 98 845 122 1483 122
AnchorPoint: "top" 959 1082 basechar 0
LayerCount: 2
Fore
SplineSet
1015 596 m 258
 1015 836 1168 970 1303 970 c 256
 1474 970 1502 802 1502 644 c 258
 1502 0 l 257
 1683 0 l 257
 1683 697 l 258
 1683 963 1560 1106 1338 1106 c 256
 1183 1106 1053 1026 982 851 c 257
 941 1009 831 1106 665 1106 c 256
 524 1106 402 1035 335 870 c 257
 316 1082 l 257
 164 1082 l 257
 164 0 l 257
 346 0 l 257
 346 638 l 257
 370 828 466 970 629 970 c 256
 775 970 833 860 833 610 c 258
 833 0 l 257
 1015 0 l 257
 1015 596 l 258
EndSplineSet
EndChar

StartChar: macron
Encoding: 175 175 273
Width: 1144
VWidth: 0
GlyphClass: 4
Flags: W
PickledData: "(dp1
S'org.robofab.postScriptHintData'
p2
(dp3
sS'com.typemytype.robofont.layerData'
p4
(dp5
s."
AnchorPoint: "top" 571 1066 mark 0
AnchorPoint: "mid" 555 1374 mark 0
LayerCount: 2
Fore
SplineSet
265 1327 m 257
 849 1327 l 257
 849 1427 l 257
 265 1427 l 257
 265 1327 l 257
EndSplineSet
EndChar

StartChar: minus
Encoding: 8722 8722 275
Width: 1169
VWidth: 0
GlyphClass: 2
Flags: W
PickledData: "(dp1
S'org.pippin.gimp.org.kernagic'
p2
(dp3
S'lstem'
p4
I0
sS'rstem'
p5
I0
ssS'com.typemytype.robofont.layerData'
p6
(dp7
sS'org.robofab.postScriptHintData'
p8
(dp9
s."
LayerCount: 2
Fore
SplineSet
104 666 m 257
 104 522 l 257
 1070 522 l 257
 1070 666 l 257
 104 666 l 257
EndSplineSet
EndChar

StartChar: multiply
Encoding: 215 215 276
Width: 994
VWidth: 0
GlyphClass: 2
Flags: W
PickledData: "(dp1
S'org.pippin.gimp.org.kernagic'
p2
(dp3
S'lstem'
p4
I0
sS'rstem'
p5
I0
ssS'com.typemytype.robofont.layerData'
p6
(dp7
sS'org.robofab.postScriptHintData'
p8
(dp9
s."
LayerCount: 2
Fore
SplineSet
113 962 m 257
 397 653 l 257
 104 337 l 257
 200 238 l 257
 493 551 l 257
 784 238 l 257
 877 340 l 257
 877 340 615 626 589 653 c 257
 874 959 l 257
 775 1060 l 257
 493 755 l 257
 209 1063 l 257
 113 962 l 257
EndSplineSet
EndChar

StartChar: n
Encoding: 110 110 277
Width: 1204
VWidth: 0
GlyphClass: 2
Flags: W
PickledData: "(dp1
S'org.pippin.gimp.org.kernagic'
p2
(dp3
S'lstem'
p4
I0
sS'rstem'
p5
I0
ssS'com.typemytype.robofont.layerData'
p6
(dp7
sS'com.fontlab.hintData'
p8
(dp9
S'vhints'
p10
((dp11
S'position'
p12
I193
sS'width'
p13
I122
s(dp14
g12
I903
sg13
I122
stp15
sS'hhints'
p16
((dp17
g12
I0
sg13
I22
s(dp18
g12
I982
sg13
I92
s(dp19
g12
I1034
sg13
I21
stp20
ssS'org.robofab.postScriptHintData'
p21
(dp22
s."
HStem: 0 22 982 92 1034 21
VStem: 193 122 903 122
AnchorPoint: "top" 697 1082 basechar 0
AnchorPoint: "bot" 607 0 basechar 0
LayerCount: 2
Fore
SplineSet
165 0 m 257
 347 0 l 257
 347 612 l 258
 347 807 439 970 662 970 c 256
 825 970 874 848 874 665 c 258
 874 0 l 257
 1055 0 l 257
 1055 652 l 258
 1055 944 944 1106 700 1106 c 256
 524 1106 401 1031 335 871 c 257
 316 1082 l 257
 165 1082 l 257
 165 0 l 257
EndSplineSet
EndChar

StartChar: nine
Encoding: 57 57 282
Width: 1260
VWidth: 0
GlyphClass: 2
Flags: W
PickledData: "(dp1
S'org.pippin.gimp.org.kernagic'
p2
(dp3
S'lstem'
p4
I0
sS'rstem'
p5
I0
ssS'com.typemytype.robofont.layerData'
p6
(dp7
sS'org.robofab.postScriptHintData'
p8
(dp9
s."
LayerCount: 2
Fore
SplineSet
967 1017 m 256
 967 780 783 702 650 702 c 256
 454 702 354 839 354 1016 c 256
 354 1187 468 1333 663 1333 c 256
 858 1333 967 1186 967 1017 c 256
352 0 m 257
 551 0 l 257
 915 469 l 257
 1053 645 1144 792 1144 1006 c 256
 1144 1254 969 1476 662 1476 c 256
 370 1476 174 1275 174 1015 c 256
 174 744 364 564 601 564 c 256
 682 564 768 590 838 636 c 257
 680 427 514 226 352 22 c 257
 352 0 l 257
EndSplineSet
EndChar

StartChar: notequal
Encoding: 8800 8800 283
Width: 1089
VWidth: 0
GlyphClass: 2
Flags: W
PickledData: "(dp1
S'org.pippin.gimp.org.kernagic'
p2
(dp3
S'lstem'
p4
I0
sS'rstem'
p5
I0
ssS'com.typemytype.robofont.layerData'
p6
(dp7
S'b'
(dp8
S'name'
p9
S'notequal'
p10
sS'lib'
p11
(dp12
sS'unicodes'
p13
(tsS'width'
p14
I1079
sS'contours'
p15
(tsS'components'
p16
(tsS'anchors'
p17
(tsssS'org.robofab.postScriptHintData'
p18
(dp19
s."
LayerCount: 2
Fore
SplineSet
315 47 m 257
 457 350 l 257
 1002 350 l 257
 995 474 l 257
 511 474 l 257
 668 781 l 257
 1002 781 l 257
 993 908 l 257
 722 908 l 257
 836 1186 l 257
 732 1200 l 257
 595 908 l 257
 66 908 l 257
 74 782 l 257
 539 782 l 257
 387 475 l 257
 67 475 l 257
 74 350 l 257
 328 350 l 257
 212 66 l 257
 315 47 l 257
EndSplineSet
EndChar

StartChar: numbersign
Encoding: 35 35 285
Width: 1159
VWidth: 0
GlyphClass: 2
Flags: W
PickledData: "(dp1
S'org.pippin.gimp.org.kernagic'
p2
(dp3
S'lstem'
p4
I0
sS'rstem'
p5
I0
ssS'com.typemytype.robofont.layerData'
p6
(dp7
sS'org.robofab.postScriptHintData'
p8
(dp9
s."
LayerCount: 2
Fore
SplineSet
389 539 m 257
 480 988 l 257
 776 988 l 257
 686 539 l 257
 389 539 l 257
168 -18 m 257
 278 -18 l 257
 370 442 l 257
 666 442 l 257
 575 -18 l 257
 683 -18 l 257
 775 442 l 257
 1000 442 l 257
 1015 539 l 257
 795 539 l 257
 885 988 l 257
 1094 988 l 257
 1110 1083 l 257
 904 1083 l 257
 1003 1550 l 257
 896 1550 l 257
 796 1083 l 257
 500 1083 l 257
 599 1550 l 257
 488 1550 l 257
 388 1083 l 257
 186 1083 l 257
 173 988 l 257
 369 988 l 257
 279 539 l 257
 78 539 l 257
 65 442 l 257
 260 442 l 257
 168 -18 l 257
EndSplineSet
EndChar

StartChar: o
Encoding: 111 111 286
Width: 1205
VWidth: 0
GlyphClass: 2
Flags: W
PickledData: "(dp1
S'org.pippin.gimp.org.kernagic'
p2
(dp3
S'lstem'
p4
I0
sS'rstem'
p5
I0
ssS'org.robofab.postScriptHintData'
p6
(dp7
sS'com.typemytype.robofont.layerData'
p8
(dp9
sS'com.fontlab.hintData'
p10
(dp11
S'vhints'
p12
((dp13
S'position'
p14
I128
sS'width'
p15
I120
s(dp16
g14
I982
sg15
I120
stp17
sS'hhints'
p18
((dp19
g14
I-19
sg15
I92
s(dp20
g14
I982
sg15
I92
stp21
ssS'com.typemytype.robofont.guides'
p22
((dp23
S'y'
I1093
sS'x'
I582
sS'magnetic'
p24
I5
sS'angle'
p25
F90
sS'isGlobal'
p26
I00
stp27
s."
HStem: -19 92 982 92
VStem: 128 120 982 120
AnchorPoint: "top" 603 1082 basechar 0
AnchorPoint: "ogonek" 712 1 basechar 0
LayerCount: 2
Fore
SplineSet
603 -20 m 256
 917 -20 1092 206 1092 542 c 256
 1092 885 920 1106 603 1106 c 256
 285 1106 113 885 113 542 c 256
 113 206 288 -20 603 -20 c 256
603 115 m 256
 391 115 300 295 300 541 c 256
 300 793 392 970 603 970 c 256
 813 970 905 793 905 541 c 256
 905 295 814 115 603 115 c 256
EndSplineSet
EndChar

StartChar: oe
Encoding: 339 339 291
Width: 1909
VWidth: 0
GlyphClass: 2
Flags: W
PickledData: "(dp1
S'org.pippin.gimp.org.kernagic'
p2
(dp3
S'lstem'
p4
I0
sS'rstem'
p5
I0
ssS'com.typemytype.robofont.layerData'
p6
(dp7
S'b'
(dp8
S'name'
p9
S'oe'
p10
sS'lib'
p11
(dp12
sS'unicodes'
p13
(tsS'width'
p14
F1915.3599999999999
sS'contours'
p15
(tsS'components'
p16
(tsS'anchors'
p17
(tsssS'org.robofab.postScriptHintData'
p18
(dp19
s."
LayerCount: 2
Fore
SplineSet
1083 626 m 257
 1102 840 1228 972 1401 972 c 256
 1574 972 1657 846 1661 626 c 257
 1083 626 l 257
594 115 m 256
 379 115 287 295 287 541 c 256
 287 792 380 971 594 971 c 256
 808 971 900 792 900 541 c 256
 900 295 808 115 594 115 c 256
1811 621 m 258
 1811 921 1654 1105 1393 1105 c 256
 1231 1105 1065 1007 997 852 c 257
 937 1006 781 1105 594 1105 c 256
 278 1105 107 885 107 542 c 256
 107 206 282 -20 594 -20 c 256
 779 -20 944 91 995 244 c 257
 1060 87 1242 -20 1419 -20 c 256
 1570 -19 1696 26 1782 86 c 257
 1740 206 l 257
 1728 206 l 257
 1643 155 1562 115 1438 115 c 256
 1248 115 1083 224 1080 509 c 257
 1803 509 l 257
 1803 509 1811 567 1811 599 c 258
 1811 621 l 258
EndSplineSet
EndChar

StartChar: ogonek
Encoding: 731 731 292
Width: 766
VWidth: 0
GlyphClass: 4
Flags: W
PickledData: "(dp1
S'org.pippin.gimp.org.kernagic'
p2
(dp3
S'lstem'
p4
I0
sS'rstem'
p5
I0
ssS'com.typemytype.robofont.layerData'
p6
(dp7
sS'org.robofab.postScriptHintData'
p8
(dp9
s."
AnchorPoint: "ogonek" 492 0 mark 0
LayerCount: 2
Fore
SplineSet
442 -423 m 256
 493 -423 556 -408 591 -392 c 257
 588 -283 l 257
 570 -291 521 -308 478 -308 c 256
 433 -308 396 -284 396 -228 c 256
 396 -152 478 -41 539 4 c 257
 455 4 l 257
 354 -38 251 -153 251 -269 c 256
 251 -364 318 -423 442 -423 c 256
EndSplineSet
EndChar

StartChar: one
Encoding: 49 49 296
Width: 1260
VWidth: 0
GlyphClass: 2
Flags: W
PickledData: "(dp1
S'org.pippin.gimp.org.kernagic'
p2
(dp3
S'lstem'
p4
I0
sS'rstem'
p5
I0
ssS'com.typemytype.robofont.layerData'
p6
(dp7
sS'org.robofab.postScriptHintData'
p8
(dp9
s."
LayerCount: 2
Fore
SplineSet
198 0 m 257
 1120 0 l 257
 1120 135 l 257
 773 135 l 257
 773 1456 l 257
 604 1456 l 257
 525 1400 297 1318 209 1298 c 257
 209 1153 l 257
 286 1164 475 1226 587 1287 c 257
 587 135 l 257
 198 135 l 257
 198 0 l 257
EndSplineSet
EndChar

StartChar: onehalf
Encoding: 189 189 297
Width: 1771
VWidth: 0
GlyphClass: 2
Flags: W
PickledData: "(dp1
S'org.pippin.gimp.org.kernagic'
p2
(dp3
S'lstem'
p4
I0
sS'rstem'
p5
I0
ssS'com.typemytype.robofont.layerData'
p6
(dp7
sS'org.robofab.postScriptHintData'
p8
(dp9
s."
LayerCount: 2
Fore
SplineSet
376 0 m 257
 515 0 l 257
 1430 1479 l 257
 1292 1479 l 257
 376 0 l 257
137 594 m 257
 570 594 l 257
 570 709 l 257
 430 709 l 257
 430 1479 l 257
 316 1479 l 257
 275 1442 160 1389 128 1375 c 257
 128 1258 l 257
 154 1269 249 1309 286 1332 c 257
 286 709 l 257
 137 709 l 257
 137 594 l 257
1154 0 m 257
 1665 0 l 257
 1671 118 l 257
 1316 118 l 257
 1493 284 l 258
 1619 402 1679 479 1679 614 c 256
 1679 778 1553 872 1393 872 c 256
 1274 872 1164 811 1110 716 c 257
 1185 634 l 257
 1242 712 1312 748 1390 748 c 256
 1471 748 1540 702 1540 607 c 256
 1540 538 1509 478 1400 366 c 258
 1151 113 l 257
 1154 0 l 257
EndSplineSet
EndChar

StartChar: onequarter
Encoding: 188 188 298
Width: 1739
VWidth: 0
GlyphClass: 2
Flags: W
PickledData: "(dp1
S'org.pippin.gimp.org.kernagic'
p2
(dp3
S'lstem'
p4
I0
sS'rstem'
p5
I0
ssS'com.typemytype.robofont.layerData'
p6
(dp7
sS'org.robofab.postScriptHintData'
p8
(dp9
s."
LayerCount: 2
Fore
SplineSet
1136 300 m 257
 1393 686 l 257
 1393 300 l 257
 1136 300 l 257
376 0 m 257
 517 0 l 257
 1432 1479 l 257
 1293 1479 l 257
 376 0 l 257
1394 0 m 257
 1525 0 l 257
 1525 190 l 257
 1645 190 l 257
 1639 300 l 257
 1526 300 l 257
 1526 859 l 257
 1384 859 l 257
 993 288 l 257
 993 190 l 257
 1394 190 l 257
 1394 0 l 257
133 594 m 257
 563 594 l 257
 563 711 l 257
 425 711 l 257
 425 1479 l 257
 310 1479 l 257
 270 1442 155 1389 123 1375 c 257
 123 1255 l 257
 149 1267 245 1306 282 1329 c 257
 282 711 l 257
 133 711 l 257
 133 594 l 257
EndSplineSet
EndChar

StartChar: ordmasculine
Encoding: 186 186 300
Width: 965
VWidth: 0
GlyphClass: 2
Flags: W
PickledData: "(dp1
S'org.pippin.gimp.org.kernagic'
p2
(dp3
S'lstem'
p4
I0
sS'rstem'
p5
I0
ssS'com.typemytype.robofont.layerData'
p6
(dp7
S'b'
(dp8
S'name'
p9
S'ordmasculine'
p10
sS'lib'
p11
(dp12
sS'unicodes'
p13
(tsS'width'
p14
I965
sS'contours'
p15
(tsS'components'
p16
(tsS'anchors'
p17
(tsssS'org.robofab.postScriptHintData'
p18
(dp19
s."
LayerCount: 2
Fore
SplineSet
683 1093 m 256
 683 925 618 827 480 827 c 256
 350 827 285 926 285 1096 c 256
 285 1268 351 1370 480 1370 c 256
 613 1370 683 1266 683 1093 c 256
141 1096 m 256
 141 877 260 713 480 713 c 256
 688 713 820 880 820 1096 c 256
 820 1322 706 1484 480 1484 c 256
 260 1484 141 1319 141 1096 c 256
EndSplineSet
EndChar

StartChar: oslash
Encoding: 248 248 301
Width: 1205
VWidth: 0
GlyphClass: 2
Flags: W
PickledData: "(dp1
S'org.pippin.gimp.org.kernagic'
p2
(dp3
S'lstem'
p4
I0
sS'rstem'
p5
I0
ssS'com.typemytype.robofont.layerData'
p6
(dp7
sS'org.robofab.postScriptHintData'
p8
(dp9
s."
LayerCount: 2
Fore
SplineSet
191 -124 m 257
 257 -163 l 257
 984 1201 l 257
 912 1240 l 257
 191 -124 l 257
EndSplineSet
Refer: 286 111 N 1 0 0 1 0 0 2
EndChar

StartChar: p
Encoding: 112 112 304
Width: 1212
VWidth: 0
GlyphClass: 2
Flags: W
PickledData: "(dp1
S'org.pippin.gimp.org.kernagic'
p2
(dp3
S'lstem'
p4
I0
sS'rstem'
p5
I0
ssS'com.typemytype.robofont.layerData'
p6
(dp7
sS'com.fontlab.hintData'
p8
(dp9
S'vhints'
p10
((dp11
S'position'
p12
I193
sS'width'
p13
I122
s(dp14
g12
I193
sg13
I97
s(dp15
g12
I1009
sg13
I122
stp16
sS'hhints'
p17
((dp18
g12
I-19
sg13
I92
s(dp19
g12
I982
sg13
I92
stp20
ssS'org.robofab.postScriptHintData'
p21
(dp22
s."
HStem: -19 92 982 92
VStem: 193 122 193 97 1009 122
AnchorPoint: "top" 666 1082 basechar 0
LayerCount: 2
Fore
SplineSet
625 115 m 256
 508 115 406 159 340 250 c 257
 340 575 l 257
 342 810 430 970 644 970 c 256
 847 970 912 792 912 542 c 256
 912 276 824 115 625 115 c 256
165 -458 m 257
 346 -458 l 257
 346 -67 l 257
 341 89 l 257
 408 21 509 -20 641 -20 c 256
 925 -20 1099 211 1099 540 c 256
 1099 877 963 1106 670 1106 c 256
 508 1106 387 1023 334 859 c 257
 317 1082 l 257
 165 1082 l 257
 165 -458 l 257
EndSplineSet
EndChar

StartChar: paragraph
Encoding: 182 182 305
Width: 1146
VWidth: 0
GlyphClass: 2
Flags: W
PickledData: "(dp1
S'org.pippin.gimp.org.kernagic'
p2
(dp3
S'lstem'
p4
I0
sS'rstem'
p5
I0
ssS'com.typemytype.robofont.layerData'
p6
(dp7
sS'org.robofab.postScriptHintData'
p8
(dp9
s."
LayerCount: 2
Fore
SplineSet
645 1331 m 257
 785 1331 l 257
 785 -205 l 257
 914 -205 l 257
 914 1456 l 257
 557 1456 l 258
 229 1456 131 1281 131 1111 c 256
 131 934 235 763 516 763 c 257
 516 -205 l 257
 645 -205 l 257
 645 1331 l 257
EndSplineSet
EndChar

StartChar: parenright
Encoding: 41 41 307
Width: 776
VWidth: 0
GlyphClass: 2
Flags: W
PickledData: "(dp1
S'org.pippin.gimp.org.kernagic'
p2
(dp3
S'lstem'
p4
I0
sS'rstem'
p5
I0
ssS'com.typemytype.robofont.layerData'
p6
(dp7
S'b'
(dp8
S'name'
p9
S'parenright'
p10
sS'lib'
p11
(dp12
sS'unicodes'
p13
(tsS'width'
p14
I766
sS'contours'
p15
(tsS'components'
p16
(tsS'anchors'
p17
(tsssS'org.robofab.postScriptHintData'
p18
(dp19
s."
LayerCount: 2
Fore
SplineSet
570 677 m 256
 570 1004 477 1324 311 1591 c 257
 164 1591 l 257
 164 1556 l 257
 336 1273 411 985 411 677 c 256
 411 369 336 81 164 -203 c 257
 164 -236 l 257
 311 -236 l 257
 477 30 570 351 570 677 c 256
EndSplineSet
EndChar

StartChar: partialdiff
Encoding: 8706 8706 308
Width: 1183
VWidth: 0
GlyphClass: 2
Flags: W
PickledData: "(dp1
S'org.robofab.postScriptHintData'
p2
(dp3
s."
LayerCount: 2
Fore
SplineSet
485 89 m 256
 404 89 364 163 364 265 c 256
 364 480 540 816 868 829 c 257
 849 542 738 89 485 89 c 256
471 -19 m 256
 814 -19 1047 382 1047 908 c 256
 1047 1317 816 1560 529 1560 c 256
 436 1560 337 1534 238 1480 c 257
 277 1381 l 257
 349 1415 421 1431 487 1431 c 256
 705 1431 874 1257 874 966 c 256
 874 952 874 937 873 922 c 257
 418 920 164 563 164 289 c 256
 164 119 262 -19 471 -19 c 256
EndSplineSet
EndChar

StartChar: percent
Encoding: 37 37 309
Width: 1623
VWidth: 0
GlyphClass: 2
Flags: W
PickledData: "(dp1
S'org.pippin.gimp.org.kernagic'
p2
(dp3
S'lstem'
p4
I0
sS'rstem'
p5
I0
ssS'com.typemytype.robofont.layerData'
p6
(dp7
S'b'
(dp8
S'name'
p9
S'percent'
p10
sS'lib'
p11
(dp12
sS'unicodes'
p13
(tsS'width'
p14
I1563
sS'contours'
p15
(tsS'components'
p16
(tsS'anchors'
p17
(tsssS'org.robofab.postScriptHintData'
p18
(dp19
s."
LayerCount: 2
Fore
SplineSet
1157 -4 m 256
 1384 -4 1469 164 1469 381 c 256
 1469 602 1387 765 1157 765 c 256
 933 765 847 599 847 381 c 256
 847 164 929 -4 1157 -4 c 256
1159 100 m 256
 1006 100 974 220 974 382 c 256
 974 540 1006 660 1159 660 c 256
 1310 660 1343 546 1343 382 c 256
 1343 224 1311 100 1159 100 c 256
281 0 m 257
 423 0 l 257
 1245 1463 l 257
 1112 1463 l 257
 281 0 l 257
370 715 m 256
 597 715 682 883 682 1100 c 256
 682 1321 600 1483 370 1483 c 256
 146 1483 68 1318 68 1100 c 256
 68 883 142 715 370 715 c 256
372 819 m 256
 219 819 187 938 187 1101 c 256
 187 1259 219 1379 372 1379 c 256
 523 1379 556 1264 556 1101 c 256
 556 943 524 819 372 819 c 256
EndSplineSet
EndChar

StartChar: period
Encoding: 46 46 310
Width: 634
VWidth: 0
GlyphClass: 2
Flags: W
PickledData: "(dp1
S'org.pippin.gimp.org.kernagic'
p2
(dp3
S'lstem'
p4
I0
sS'rstem'
p5
I0
ssS'com.typemytype.robofont.layerData'
p6
(dp7
S'b'
(dp8
S'name'
p9
S'period'
p10
sS'lib'
p11
(dp12
sS'unicodes'
p13
(tsS'width'
p14
I624
sS'contours'
p15
(tsS'components'
p16
(tsS'anchors'
p17
(tsssS'org.robofab.postScriptHintData'
p18
(dp19
s."
LayerCount: 2
Fore
SplineSet
320 -11 m 256
 392 -11 426 33 426 112 c 256
 426 189 392 232 320 232 c 256
 244 232 212 189 212 112 c 256
 212 33 244 -11 320 -11 c 256
EndSplineSet
EndChar

StartChar: periodcentered
Encoding: 183 183 311
Width: 648
VWidth: 0
GlyphClass: 2
Flags: W
PickledData: "(dp1
S'org.pippin.gimp.org.kernagic'
p2
(dp3
S'lstem'
p4
I0
sS'rstem'
p5
I0
ssS'com.typemytype.robofont.layerData'
p6
(dp7
S'b'
(dp8
S'name'
p9
S'periodcentered'
p10
sS'lib'
p11
(dp12
sS'unicodes'
p13
(tsS'width'
p14
I653
sS'contours'
p15
(tsS'components'
p16
(tsS'anchors'
p17
(tsssS'org.robofab.postScriptHintData'
p18
(dp19
s."
LayerCount: 2
Fore
SplineSet
334 508 m 256
 401 508 450 555 450 624 c 256
 450 692 401 738 334 738 c 256
 266 738 217 692 217 624 c 256
 217 555 266 508 334 508 c 256
EndSplineSet
EndChar

StartChar: perthousand
Encoding: 8240 8240 312
Width: 2339
VWidth: 0
GlyphClass: 2
Flags: W
PickledData: "(dp1
S'org.pippin.gimp.org.kernagic'
p2
(dp3
S'lstem'
p4
I0
sS'rstem'
p5
I0
ssS'com.typemytype.robofont.layerData'
p6
(dp7
S'b'
(dp8
S'name'
p9
S'perthousand'
p10
sS'lib'
p11
(dp12
sS'unicodes'
p13
(tsS'width'
p14
I2251
sS'contours'
p15
(tsS'components'
p16
(tsS'anchors'
p17
(tsssS'org.robofab.postScriptHintData'
p18
(dp19
s."
LayerCount: 2
Fore
SplineSet
1873 -4 m 256
 2100 -4 2184 164 2184 381 c 256
 2184 602 2103 765 1873 765 c 256
 1649 765 1563 599 1563 381 c 256
 1563 164 1645 -4 1873 -4 c 256
1875 100 m 256
 1722 100 1689 220 1689 382 c 256
 1689 540 1722 660 1875 660 c 256
 2026 660 2058 546 2058 382 c 256
 2058 224 2027 100 1875 100 c 256
EndSplineSet
Refer: 309 37 N 1 0 0 1 14 0 2
EndChar

StartChar: pi
Encoding: 960 960 313
Width: 1445
VWidth: 0
GlyphClass: 2
Flags: W
PickledData: "(dp1
S'org.robofab.postScriptHintData'
p2
(dp3
sS'com.typemytype.robofont.layerData'
p4
(dp5
s."
LayerCount: 2
Fore
SplineSet
1143 -13 m 256
 1222 -13 1289 11 1324 45 c 257
 1324 176 l 257
 1295 166 1239 142 1197 142 c 256
 1118 142 1073 233 1073 434 c 256
 1073 549 1084 718 1109 906 c 257
 1350 906 l 257
 1350 1082 l 257
 441 1082 l 258
 198 1082 123 992 123 771 c 257
 221 771 l 257
 233 849 274 906 355 906 c 258
 480 906 l 257
 415 398 l 258
 387 176 258 115 135 115 c 257
 135 4 l 257
 489 4 562 108 572 332 c 258
 598 906 l 257
 977 906 l 257
 945 675 903 443 903 281 c 256
 903 97 964 -13 1143 -13 c 256
EndSplineSet
EndChar

StartChar: plus
Encoding: 43 43 314
Width: 1141
VWidth: 0
GlyphClass: 2
Flags: W
PickledData: "(dp1
S'org.pippin.gimp.org.kernagic'
p2
(dp3
S'lstem'
p4
I0
sS'rstem'
p5
I0
ssS'com.typemytype.robofont.layerData'
p6
(dp7
S'b'
(dp8
S'name'
p9
S'plus'
p10
sS'lib'
p11
(dp12
sS'unicodes'
p13
(tsS'width'
p14
I1136
sS'contours'
p15
(tsS'components'
p16
(tsS'anchors'
p17
(tsssS'org.robofab.postScriptHintData'
p18
(dp19
s."
LayerCount: 2
Fore
SplineSet
476 1163 m 257
 476 785 l 257
 117 785 l 257
 117 612 l 257
 475 612 l 257
 475 228 l 257
 654 228 l 257
 654 612 l 257
 1009 612 l 257
 1009 785 l 257
 654 785 l 257
 654 1163 l 257
 476 1163 l 257
EndSplineSet
EndChar

StartChar: plusminus
Encoding: 177 177 315
Width: 1136
VWidth: 0
GlyphClass: 2
Flags: W
PickledData: "(dp1
S'org.pippin.gimp.org.kernagic'
p2
(dp3
S'lstem'
p4
I0
sS'rstem'
p5
I0
ssS'com.typemytype.robofont.layerData'
p6
(dp7
sS'org.robofab.postScriptHintData'
p8
(dp9
s."
LayerCount: 2
Fore
SplineSet
105 126 m 257
 105 0 l 257
 1035 0 l 257
 1035 126 l 257
 105 126 l 257
494 1127 m 257
 494 743 l 257
 124 743 l 257
 124 614 l 257
 494 614 l 257
 494 222 l 257
 630 222 l 257
 630 614 l 257
 994 614 l 257
 994 743 l 257
 629 743 l 257
 629 1127 l 257
 494 1127 l 257
EndSplineSet
EndChar

StartChar: product
Encoding: 8719 8719 316
Width: 1538
VWidth: 0
GlyphClass: 2
Flags: W
PickledData: "(dp1
S'org.pippin.gimp.org.kernagic'
p2
(dp3
S'lstem'
p4
I0
sS'rstem'
p5
I0
ssS'com.typemytype.robofont.layerData'
p6
(dp7
S'b'
(dp8
S'name'
p9
S'product'
p10
sS'lib'
p11
(dp12
sS'unicodes'
p13
(tsS'width'
p14
I1533
sS'contours'
p15
(tsS'components'
p16
(tsS'anchors'
p17
(tsssS'org.robofab.postScriptHintData'
p18
(dp19
s."
LayerCount: 2
Fore
SplineSet
199 1500 m 257
 199 0 l 257
 372 0 l 257
 372 1349 l 257
 1168 1349 l 257
 1168 0 l 257
 1341 0 l 257
 1341 1500 l 257
 199 1500 l 257
EndSplineSet
EndChar

StartChar: q
Encoding: 113 113 317
Width: 1206
VWidth: 0
GlyphClass: 2
Flags: W
PickledData: "(dp1
S'org.pippin.gimp.org.kernagic'
p2
(dp3
S'lstem'
p4
I0
sS'rstem'
p5
I0
ssS'com.typemytype.robofont.layerData'
p6
(dp7
sS'org.robofab.postScriptHintData'
p8
(dp9
s."
LayerCount: 2
Fore
SplineSet
594 115 m 256
 392 115 296 271 296 545 c 256
 296 809 393 970 591 970 c 256
 708 970 802 927 868 834 c 257
 868 234 l 257
 811 156 710 115 594 115 c 256
578 -20 m 256
 669 -20 783 5 865 88 c 257
 862 -22 l 257
 862 -458 l 257
 1043 -458 l 257
 1043 1082 l 257
 890 1082 l 257
 882 963 l 257
 820 1045 720 1106 580 1106 c 256
 285 1106 109 880 109 545 c 256
 109 208 272 -20 578 -20 c 256
EndSplineSet
EndChar

StartChar: question
Encoding: 63 63 318
Width: 923
VWidth: 0
GlyphClass: 2
Flags: W
PickledData: "(dp1
S'org.pippin.gimp.org.kernagic'
p2
(dp3
S'lstem'
p4
I0
sS'rstem'
p5
I0
ssS'com.typemytype.robofont.layerData'
p6
(dp7
sS'org.robofab.postScriptHintData'
p8
(dp9
s."
LayerCount: 2
Fore
SplineSet
371 -14 m 256
 451 -14 488 41 488 105 c 256
 488 165 451 222 371 222 c 256
 290 222 251 165 251 105 c 256
 251 43 290 -14 371 -14 c 256
331 431 m 257
 414 429 l 257
 522 788 765 835 765 1139 c 256
 765 1384 602 1484 419 1484 c 256
 295 1484 192 1444 116 1385 c 257
 154 1248 l 257
 199 1278 294 1334 397 1334 c 256
 521 1334 591 1264 591 1124 c 256
 591 912 351 744 331 431 c 257
EndSplineSet
EndChar

StartChar: quotedbl
Encoding: 34 34 320
Width: 703
VWidth: 0
GlyphClass: 2
Flags: W
PickledData: "(dp1
S'org.robofab.postScriptHintData'
p2
(dp3
sS'com.typemytype.robofont.layerData'
p4
(dp5
s."
LayerCount: 2
Fore
SplineSet
469 996 m 257
 559 996 l 257
 597 1529 l 257
 407 1529 l 257
 469 996 l 257
170 996 m 257
 259 996 l 257
 297 1529 l 257
 107 1529 l 257
 170 996 l 257
EndSplineSet
EndChar

StartChar: quotedblbase
Encoding: 8222 8222 321
Width: 765
VWidth: 0
GlyphClass: 2
Flags: W
PickledData: "(dp1
S'org.robofab.postScriptHintData'
p2
(dp3
s."
LayerCount: 2
Fore
SplineSet
419 -313 m 257
 536 -313 l 257
 646 161 l 257
 467 161 l 257
 419 -313 l 257
109 -313 m 257
 229 -313 l 257
 335 161 l 257
 160 161 l 257
 109 -313 l 257
EndSplineSet
EndChar

StartChar: quotedblleft
Encoding: 8220 8220 322
Width: 906
VWidth: 0
GlyphClass: 2
Flags: W
PickledData: "(dp1
S'org.robofab.postScriptHintData'
p2
(dp3
sS'com.typemytype.robofont.layerData'
p4
(dp5
s."
LayerCount: 2
Fore
SplineSet
512 1019 m 257
 705 1019 l 257
 751 1503 l 257
 621 1503 l 257
 512 1019 l 257
158 1019 m 257
 351 1019 l 257
 397 1503 l 257
 268 1503 l 257
 158 1019 l 257
EndSplineSet
EndChar

StartChar: quotedblright
Encoding: 8221 8221 323
Width: 906
VWidth: 0
GlyphClass: 2
Flags: W
PickledData: "(dp1
S'org.robofab.postScriptHintData'
p2
(dp3
sS'com.typemytype.robofont.layerData'
p4
(dp5
s."
LayerCount: 2
Fore
SplineSet
158 1019 m 257
 288 1019 l 257
 397 1503 l 257
 204 1503 l 257
 158 1019 l 257
512 1019 m 257
 641 1019 l 257
 751 1503 l 257
 558 1503 l 257
 512 1019 l 257
EndSplineSet
EndChar

StartChar: quoteleft
Encoding: 8216 8216 324
Width: 525
VWidth: 0
GlyphClass: 2
Flags: W
PickledData: "(dp1
S'org.robofab.postScriptHintData'
p2
(dp3
sS'com.typemytype.robofont.layerData'
p4
(dp5
s."
LayerCount: 2
Fore
SplineSet
397 1503 m 257
 268 1503 l 257
 158 1019 l 257
 351 1019 l 257
 397 1503 l 257
EndSplineSet
EndChar

StartChar: quoteright
Encoding: 8217 8217 325
Width: 525
VWidth: 0
GlyphClass: 2
Flags: W
PickledData: "(dp1
S'org.robofab.postScriptHintData'
p2
(dp3
sS'com.typemytype.robofont.layerData'
p4
(dp5
s."
LayerCount: 2
Fore
SplineSet
158 1019 m 257
 288 1019 l 257
 397 1503 l 257
 204 1503 l 257
 158 1019 l 257
EndSplineSet
EndChar

StartChar: quotesinglbase
Encoding: 8218 8218 326
Width: 459
VWidth: 0
GlyphClass: 2
Flags: W
PickledData: "(dp1
S'org.robofab.postScriptHintData'
p2
(dp3
s."
LayerCount: 2
Fore
SplineSet
99 -313 m 257
 221 -313 l 257
 333 161 l 257
 153 161 l 257
 99 -313 l 257
EndSplineSet
EndChar

StartChar: quotesingle
Encoding: 39 39 327
Width: 415
VWidth: 0
GlyphClass: 2
Flags: W
PickledData: "(dp1
S'org.robofab.postScriptHintData'
p2
(dp3
s."
LayerCount: 2
Fore
SplineSet
152 957 m 257
 256 957 l 257
 284 1503 l 257
 103 1503 l 257
 152 957 l 257
EndSplineSet
EndChar

StartChar: r
Encoding: 114 114 328
Width: 777
VWidth: 0
GlyphClass: 2
Flags: W
PickledData: "(dp1
S'org.pippin.gimp.org.kernagic'
p2
(dp3
S'lstem'
p4
I0
sS'rstem'
p5
I352
ssS'com.typemytype.robofont.layerData'
p6
(dp7
sS'com.fontlab.hintData'
p8
(dp9
S'vhints'
p10
((dp11
S'position'
p12
I193
sS'width'
p13
I122
s(dp14
g12
I193
sg13
I92
stp15
sS'hhints'
p16
((dp17
g12
I974
sg13
I94
stp18
ssS'org.robofab.postScriptHintData'
p19
(dp20
s."
HStem: 974 94
VStem: 193 122 193 92
AnchorPoint: "top" 459 1082 basechar 0
AnchorPoint: "bot" 290 0 basechar 0
LayerCount: 2
Fore
SplineSet
166 0 m 257
 347 0 l 257
 347 614 l 258
 347 798 450 947 667 947 c 258
 669 947 l 257
 708 946 l 257
 722 1090 l 257
 696 1094 672 1095 643 1095 c 256
 520 1095 405 1035 331 857 c 257
 313 1082 l 257
 166 1082 l 257
 166 0 l 257
EndSplineSet
EndChar

StartChar: radical
Encoding: 8730 8730 330
Width: 1158
VWidth: 0
GlyphClass: 2
Flags: W
PickledData: "(dp1
S'org.pippin.gimp.org.kernagic'
p2
(dp3
S'lstem'
p4
I0
sS'rstem'
p5
I0
ssS'com.typemytype.robofont.layerData'
p6
(dp7
S'b'
(dp8
S'name'
p9
S'radical'
p10
sS'lib'
p11
(dp12
sS'unicodes'
p13
(tsS'width'
p14
I1136
sS'contours'
p15
(tsS'components'
p16
(tsS'anchors'
p17
(tsssS'org.robofab.postScriptHintData'
p18
(dp19
s."
LayerCount: 2
Fore
SplineSet
998 1705 m 257
 876 1193 721 571 600 60 c 257
 512 348 407 619 310 899 c 257
 49 837 l 257
 64 716 l 257
 212 748 l 257
 539 -163 l 257
 688 -163 l 257
 1125 1705 l 257
 998 1705 l 257
EndSplineSet
EndChar

StartChar: registered
Encoding: 174 174 333
Width: 1851
VWidth: 0
GlyphClass: 2
Flags: W
PickledData: "(dp1
S'org.pippin.gimp.org.kernagic'
p2
(dp3
S'lstem'
p4
I0
sS'rstem'
p5
I0
ssS'com.typemytype.robofont.layerData'
p6
(dp7
sS'org.robofab.postScriptHintData'
p8
(dp9
s."
LayerCount: 2
Fore
SplineSet
918 -23 m 256
 1295 -23 1666 241 1666 728 c 256
 1666 1215 1295 1479 918 1479 c 256
 543 1479 173 1215 173 728 c 256
 173 241 543 -23 918 -23 c 256
918 68 m 256
 591 68 283 302 283 728 c 256
 283 1153 591 1388 918 1388 c 256
 1246 1388 1558 1152 1558 728 c 256
 1558 302 1246 68 918 68 c 256
745 818 m 257
 745 1106 l 257
 920 1106 l 258
 1079 1106 1138 1090 1138 965 c 256
 1138 859 1093 818 953 818 c 258
 745 818 l 257
628 295 m 257
 744 295 l 257
 744 720 l 257
 945 720 l 257
 953 710 1155 295 1155 295 c 257
 1285 295 l 257
 1285 295 1075 713 1060 733 c 257
 1192 750 1251 836 1251 970 c 256
 1251 1136 1165 1207 938 1207 c 258
 628 1207 l 257
 628 295 l 257
EndSplineSet
EndChar

StartChar: ring
Encoding: 730 730 334
Width: 712
VWidth: 0
GlyphClass: 4
Flags: W
PickledData: "(dp1
S'org.robofab.postScriptHintData'
p2
(dp3
sS'com.typemytype.robofont.layerData'
p4
(dp5
s."
AnchorPoint: "top" 344 1066 mark 0
LayerCount: 2
Fore
SplineSet
345 1198 m 256
 458 1198 539 1282 539 1385 c 256
 539 1487 459 1571 345 1571 c 256
 232 1571 153 1488 153 1385 c 256
 153 1282 232 1198 345 1198 c 256
345 1281 m 256
 287 1281 249 1327 249 1384 c 256
 249 1438 288 1486 345 1486 c 256
 402 1486 443 1438 443 1384 c 256
 443 1328 402 1281 345 1281 c 256
EndSplineSet
EndChar

StartChar: s
Encoding: 115 115 335
Width: 976
VWidth: 0
GlyphClass: 2
Flags: W
PickledData: "(dp1
S'org.pippin.gimp.org.kernagic'
p2
(dp3
S'lstem'
p4
I168
sS'rstem'
p5
I620
ssS'org.robofab.postScriptHintData'
p6
(dp7
sS'com.typemytype.robofont.layerData'
p8
(dp9
sS'com.fontlab.hintData'
p10
(dp11
S'vhints'
p12
((dp13
S'position'
p14
I142
sS'width'
p15
I107
s(dp16
g14
I738
sg15
I104
stp17
sS'hhints'
p18
((dp19
g14
I-19
sg15
I92
s(dp20
g14
I982
sg15
I92
stp21
ssS'com.typemytype.robofont.guides'
p22
((dp23
S'y'
I381
sS'x'
I77
sS'magnetic'
p24
I5
sS'angle'
p25
F90
sS'isGlobal'
p26
I00
stp27
s."
HStem: -19 92 982 92
VStem: 142 107 738 104
AnchorPoint: "top" 507 1083 basechar 0
AnchorPoint: "bot" 477 1 basechar 0
LayerCount: 2
Fore
SplineSet
723 307 m 256
 723 175 644 112 505 112 c 256
 404 112 281 143 194 243 c 257
 180 243 l 257
 85 151 l 257
 174 39 332 -20 505 -20 c 256
 716 -20 889 78 889 314 c 256
 889 435 850 536 591 620 c 257
 471 658 l 258
 323 705 295 741 295 814 c 256
 295 910 357 969 509 969 c 256
 625 969 710 926 759 867 c 257
 769 867 l 257
 868 948 l 257
 804 1039 683 1106 508 1106 c 256
 267 1106 116 995 116 815 c 256
 116 686 150 596 412 514 c 258
 534 476 l 258
 699 424 723 377 723 307 c 256
EndSplineSet
EndChar

StartChar: section
Encoding: 167 167 341
Width: 1074
VWidth: 0
GlyphClass: 2
Flags: W
PickledData: "(dp1
S'org.pippin.gimp.org.kernagic'
p2
(dp3
S'lstem'
p4
I0
sS'rstem'
p5
I0
ssS'com.typemytype.robofont.layerData'
p6
(dp7
S'b'
(dp8
S'name'
p9
S'section'
p10
sS'lib'
p11
(dp12
sS'unicodes'
p13
(tsS'width'
p14
I1079
sS'contours'
p15
(tsS'components'
p16
(tsS'anchors'
p17
(tsssS'org.robofab.postScriptHintData'
p18
(dp19
s."
LayerCount: 2
Fore
SplineSet
691 573 m 257
 664 585 627 600 495 640 c 256
 357 686 325 711 325 794 c 256
 325 851 343 892 389 918 c 257
 398 913 415 907 536 867 c 256
 688 818 731 766 731 692 c 256
 731 642 717 601 691 573 c 257
516 -20 m 256
 715 -20 883 68 883 293 c 256
 883 381 865 445 812 498 c 257
 856 547 883 612 883 699 c 256
 883 855 830 937 600 1011 c 256
 360 1088 331 1114 331 1196 c 256
 331 1289 384 1347 537 1347 c 256
 645 1347 742 1308 802 1278 c 257
 843 1406 l 257
 751 1453 643 1483 519 1483 c 256
 295 1483 166 1368 166 1189 c 256
 166 1108 188 1042 256 988 c 257
 199 937 167 865 167 784 c 256
 167 655 219 570 417 505 c 256
 683 418 725 368 725 291 c 256
 724 178 653 115 532 115 c 258
 523 115 l 258
 411 115 303 150 188 206 c 257
 188 59 l 257
 289 10 407 -20 516 -20 c 256
EndSplineSet
EndChar

StartChar: semicolon
Encoding: 59 59 342
Width: 715
VWidth: 0
GlyphClass: 2
Flags: W
PickledData: "(dp1
S'org.pippin.gimp.org.kernagic'
p2
(dp3
S'lstem'
p4
I0
sS'rstem'
p5
I0
ssS'com.typemytype.robofont.layerData'
p6
(dp7
sS'org.robofab.postScriptHintData'
p8
(dp9
s."
LayerCount: 2
Fore
SplineSet
373 832 m 256
 456 832 495 892 495 958 c 256
 495 1023 456 1085 373 1085 c 256
 289 1085 247 1023 247 958 c 256
 247 892 290 832 373 832 c 256
248 -305 m 257
 355 -305 l 257
 472 148 l 257
 472 239 l 257
 288 239 l 257
 288 233 248 -305 248 -305 c 257
EndSplineSet
EndChar

StartChar: seven
Encoding: 55 55 343
Width: 1260
VWidth: 0
GlyphClass: 2
Flags: W
PickledData: "(dp1
S'org.pippin.gimp.org.kernagic'
p2
(dp3
S'lstem'
p4
I0
sS'rstem'
p5
I0
ssS'com.typemytype.robofont.layerData'
p6
(dp7
sS'org.robofab.postScriptHintData'
p8
(dp9
s."
LayerCount: 2
Fore
SplineSet
344 0 m 257
 530 0 l 257
 1075 1323 l 257
 1075 1456 l 257
 170 1456 l 257
 189 1308 l 257
 881 1308 l 257
 344 0 l 257
EndSplineSet
EndChar

StartChar: six
Encoding: 54 54 344
Width: 1260
VWidth: 0
GlyphClass: 2
Flags: W
PickledData: "(dp1
S'org.pippin.gimp.org.kernagic'
p2
(dp3
S'lstem'
p4
I0
sS'rstem'
p5
I0
ssS'com.typemytype.robofont.layerData'
p6
(dp7
sS'org.robofab.postScriptHintData'
p8
(dp9
s."
LayerCount: 2
Fore
SplineSet
648 124 m 256
 453 124 348 271 348 440 c 256
 348 675 525 754 653 754 c 256
 842 754 949 623 949 445 c 256
 949 275 843 124 648 124 c 256
651 -20 m 256
 944 -20 1128 186 1128 445 c 256
 1128 716 946 892 717 892 c 256
 596 892 508 843 444 788 c 257
 601 1004 759 1219 917 1434 c 257
 917 1456 l 257
 723 1456 l 257
 383 991 l 258
 248 807 170 665 170 450 c 256
 170 202 345 -20 651 -20 c 256
EndSplineSet
EndChar

StartChar: slash
Encoding: 47 47 345
Width: 970
VWidth: 0
GlyphClass: 2
Flags: W
PickledData: "(dp1
S'org.pippin.gimp.org.kernagic'
p2
(dp3
S'lstem'
p4
I0
sS'rstem'
p5
I0
ssS'com.typemytype.robofont.layerData'
p6
(dp7
S'b'
(dp8
S'name'
p9
S'slash'
p10
sS'lib'
p11
(dp12
sS'unicodes'
p13
(tsS'width'
p14
I965
sS'contours'
p15
(tsS'components'
p16
(tsS'anchors'
p17
(tsssS'org.robofab.postScriptHintData'
p18
(dp19
s."
LayerCount: 2
Fore
SplineSet
128 -145 m 257
 279 -145 l 257
 895 1560 l 257
 741 1560 l 257
 128 -145 l 257
EndSplineSet
EndChar

StartChar: slashbar
Encoding: 65543 -1 346
Width: 854
VWidth: 0
GlyphClass: 4
Flags: W
PickledData: "(dp1
S'org.pippin.gimp.org.kernagic'
p2
(dp3
S'lstem'
p4
I0
sS'rstem'
p5
I0
ssS'com.typemytype.robofont.layerData'
p6
(dp7
S'b'
(dp8
S'name'
p9
S'slashbar'
p10
sS'lib'
p11
(dp12
sS'unicodes'
p13
(tsS'width'
p14
I908
sS'contours'
p15
(tsS'components'
p16
(tsS'anchors'
p17
(tsssS'org.robofab.postScriptHintData'
p18
(dp19
s."
AnchorPoint: "mid" 481 715 mark 0
LayerCount: 2
Fore
SplineSet
184 486 m 257
 777 811 l 257
 777 944 l 257
 184 619 l 257
 184 486 l 257
EndSplineSet
EndChar

StartChar: sterling
Encoding: 163 163 348
Width: 1144
VWidth: 0
GlyphClass: 2
Flags: W
PickledData: "(dp1
S'org.pippin.gimp.org.kernagic'
p2
(dp3
S'lstem'
p4
I0
sS'rstem'
p5
I0
ssS'com.typemytype.robofont.layerData'
p6
(dp7
S'b'
(dp8
S'name'
p9
S'sterling'
p10
sS'lib'
p11
(dp12
sS'unicodes'
p13
(tsS'width'
p14
I1136
sS'contours'
p15
((dp16
S'points'
p17
((dp18
S'segmentType'
p19
S'line'
p20
sS'x'
I20
sS'smooth'
p21
I00
sS'y'
I0
s(dp22
g19
S'line'
p23
sS'x'
I8
sg21
I00
sS'y'
I115
s(dp24
g19
S'line'
p25
sS'x'
I180
sg21
I00
sS'y'
I132
s(dp26
g19
S'line'
p27
sS'x'
I180
sg21
I00
sS'y'
I683
s(dp28
g19
S'line'
p29
sS'x'
I8
sg21
I00
sS'y'
I683
s(dp30
g19
S'line'
p31
sS'x'
I8
sg21
I00
sS'y'
I806
s(dp32
g19
S'line'
p33
sS'x'
I180
sg21
I00
sS'y'
I806
s(dp34
g19
S'line'
p35
sS'x'
I180
sg21
I01
sS'y'
I920
s(dp36
S'y'
I1183
sS'x'
I180
sg21
I00
s(dp37
S'y'
I1476
sS'x'
I245
sg21
I00
s(dp38
g19
S'curve'
p39
sS'x'
I598
sg21
I01
sS'y'
I1476
s(dp40
S'y'
I1476
sS'x'
I742
sg21
I00
s(dp41
S'y'
I1421
sS'x'
I854
sg21
I00
s(dp42
g19
S'curve'
p43
sS'x'
I939
sg21
I00
sS'y'
I1347
s(dp44
g19
S'line'
p45
sS'x'
I871
sg21
I00
sS'y'
I1229
s(dp46
S'y'
I1297
sS'x'
I785
sg21
I00
s(dp47
S'y'
I1334
sS'x'
I700
sg21
I00
s(dp48
g19
S'curve'
p49
sS'x'
I598
sg21
I01
sS'y'
I1334
s(dp50
S'y'
I1334
sS'x'
I397
sg21
I00
s(dp51
S'y'
I1179
sS'x'
I356
sg21
I00
s(dp52
g19
S'curve'
p53
sS'x'
I356
sg21
I01
sS'y'
I949
s(dp54
g19
S'line'
p55
sS'x'
I356
sg21
I00
sS'y'
I806
s(dp56
g19
S'line'
p57
sS'x'
I739
sg21
I00
sS'y'
I806
s(dp58
g19
S'line'
p59
sS'x'
I739
sg21
I00
sS'y'
I683
s(dp60
g19
S'line'
p61
sS'x'
I356
sg21
I00
sS'y'
I683
s(dp62
g19
S'line'
p63
sS'x'
I356
sg21
I00
sS'y'
I134
s(dp64
g19
S'line'
p65
sS'x'
I953
sg21
I00
sS'y'
I134
s(dp66
g19
S'line'
p67
sS'x'
I940
sg21
I00
sS'y'
I0
stp68
stp69
sS'components'
p70
(tsS'anchors'
p71
(tsssS'org.robofab.postScriptHintData'
p72
(dp73
s."
LayerCount: 2
Fore
SplineSet
439 957 m 258
 439 1207 525 1328 690 1328 c 256
 800 1328 863 1281 933 1225 c 257
 950 1225 l 257
 1018 1346 l 257
 953 1409 847 1483 668 1483 c 256
 336 1483 246 1227 246 956 c 258
 246 812 l 257
 72 812 l 257
 72 681 l 257
 246 681 l 257
 246 143 l 257
 73 125 l 257
 85 0 l 257
 1015 0 l 257
 1027 145 l 257
 439 145 l 257
 439 681 l 257
 815 681 l 257
 815 812 l 257
 439 812 l 257
 439 957 l 258
EndSplineSet
EndChar

StartChar: summation
Encoding: 8721 8721 349
Width: 1064
VWidth: 0
GlyphClass: 2
Flags: W
PickledData: "(dp1
S'org.pippin.gimp.org.kernagic'
p2
(dp3
S'lstem'
p4
I0
sS'rstem'
p5
I0
ssS'com.typemytype.robofont.layerData'
p6
(dp7
S'b'
(dp8
S'name'
p9
S'summation'
p10
sS'lib'
p11
(dp12
sS'unicodes'
p13
(tsS'width'
p14
I1050
sS'contours'
p15
(tsS'components'
p16
(tsS'anchors'
p17
(tsssS'org.robofab.postScriptHintData'
p18
(dp19
s."
LayerCount: 2
Fore
SplineSet
86 1456 m 257
 86 1349 l 257
 570 622 l 257
 65 -97 l 257
 65 -199 l 257
 1037 -199 l 257
 1037 -37 l 257
 309 -37 l 257
 783 618 l 257
 330 1302 l 257
 991 1302 l 257
 991 1456 l 257
 86 1456 l 257
EndSplineSet
EndChar

StartChar: t
Encoding: 116 116 350
Width: 799
VWidth: 0
GlyphClass: 2
Flags: W
PickledData: "(dp1
S'org.pippin.gimp.org.kernagic'
p2
(dp3
S'lstem'
p4
I189
sS'rstem'
p5
I480
ssS'com.typemytype.robofont.layerData'
p6
(dp7
sS'com.fontlab.hintData'
p8
(dp9
S'vhints'
p10
((dp11
S'position'
p12
I244
sS'width'
p13
I122
s(dp14
g12
I286
sg13
I80
stp15
sS'hhints'
p16
((dp17
g12
I-11
sg13
I83
stp18
ssS'org.robofab.postScriptHintData'
p19
(dp20
s."
HStem: -11 83
VStem: 244 122 286 80
AnchorPoint: "top" 334 1378 basechar 0
AnchorPoint: "bot" 476 0 basechar 0
AnchorPoint: "mid" 366 630 basechar 0
LayerCount: 2
Fore
SplineSet
586 -8 m 258
 686 -8 l 257
 694 120 l 257
 586 124 l 258
 425 130 413 163 413 333 c 258
 413 971 l 257
 701 971 l 257
 701 1082 l 257
 413 1082 l 257
 413 1385 l 257
 262 1374 l 257
 236 1081 l 257
 65 1072 l 257
 60 971 l 257
 231 971 l 257
 231 334 l 258
 231 75 279 -8 586 -8 c 258
EndSplineSet
EndChar

StartChar: thorn
Encoding: 254 254 355
Width: 1211
VWidth: 0
GlyphClass: 2
Flags: W
PickledData: "(dp1
S'org.pippin.gimp.org.kernagic'
p2
(dp3
S'lstem'
p4
I0
sS'rstem'
p5
I0
ssS'com.typemytype.robofont.layerData'
p6
(dp7
S'b'
(dp8
S'name'
p9
S'thorn'
p10
sS'lib'
p11
(dp12
sS'unicodes'
p13
(tsS'width'
p14
I1221
sS'contours'
p15
(tsS'components'
p16
(tsS'anchors'
p17
(tsssS'org.robofab.postScriptHintData'
p18
(dp19
s."
LayerCount: 2
Fore
SplineSet
111 340 m 257
 111 -461 l 257
 286 -461 l 257
 286 340 l 257
 111 340 l 257
EndSplineSet
Refer: 155 98 N 1 0 0 1 -53 0 2
EndChar

StartChar: three
Encoding: 51 51 356
Width: 1246
VWidth: 0
GlyphClass: 2
Flags: W
PickledData: "(dp1
S'org.pippin.gimp.org.kernagic'
p2
(dp3
S'lstem'
p4
I0
sS'rstem'
p5
I0
ssS'com.typemytype.robofont.layerData'
p6
(dp7
sS'org.robofab.postScriptHintData'
p8
(dp9
s."
LayerCount: 2
Fore
SplineSet
772 770 m 257
 956 812 1042 933 1042 1097 c 256
 1042 1327 890 1476 625 1476 c 256
 489 1476 267 1433 169 1229 c 257
 275 1144 l 257
 295 1144 l 257
 374 1274 483 1322 609 1322 c 258
 624 1322 l 258
 785 1322 864 1234 864 1095 c 258
 864 1082 l 258
 864 867 664 837 503 837 c 258
 428 837 l 257
 453 688 l 257
 502 688 l 258
 761 688 901 621 901 391 c 256
 901 215 775 134 616 134 c 256
 515 134 375 168 295 297 c 257
 281 297 l 257
 175 210 l 257
 273 37 463 -20 619 -20 c 256
 919 -20 1083 165 1083 384 c 256
 1083 583 977 734 772 770 c 257
EndSplineSet
EndChar

StartChar: threequarters
Encoding: 190 190 357
Width: 1749
VWidth: 0
GlyphClass: 2
Flags: W
PickledData: "(dp1
S'org.pippin.gimp.org.kernagic'
p2
(dp3
S'lstem'
p4
I0
sS'rstem'
p5
I0
ssS'com.typemytype.robofont.layerData'
p6
(dp7
sS'org.robofab.postScriptHintData'
p8
(dp9
s."
LayerCount: 2
Fore
SplineSet
1180 300 m 257
 1437 686 l 257
 1437 300 l 257
 1180 300 l 257
428 0 m 257
 569 0 l 257
 1484 1479 l 257
 1345 1479 l 257
 428 0 l 257
1438 0 m 257
 1569 0 l 257
 1569 190 l 257
 1689 190 l 257
 1683 300 l 257
 1570 300 l 257
 1570 859 l 257
 1428 859 l 257
 1036 288 l 257
 1036 190 l 257
 1438 190 l 257
 1438 0 l 257
357 592 m 256
 505 592 642 676 642 855 c 256
 642 951 583 1032 480 1062 c 257
 585 1086 622 1187 622 1259 c 256
 622 1408 500 1477 365 1477 c 256
 279 1477 188 1448 120 1395 c 257
 171 1300 l 257
 239 1340 303 1360 357 1360 c 256
 435 1360 488 1319 488 1240 c 256
 488 1160 429 1111 332 1111 c 258
 238 1111 l 257
 238 995 l 257
 334 996 l 257
 450 996 507 947 507 851 c 256
 507 750 441 710 357 710 c 256
 297 710 227 732 168 768 c 257
 121 667 l 257
 189 618 275 592 357 592 c 256
EndSplineSet
EndChar

StartChar: tilde
Encoding: 732 732 358
Width: 990
VWidth: 0
GlyphClass: 4
Flags: W
PickledData: "(dp1
S'org.robofab.postScriptHintData'
p2
(dp3
sS'com.typemytype.robofont.layerData'
p4
(dp5
sS'com.fontlab.hintData'
p6
(dp7
S'vhints'
p8
((dp9
S'position'
p10
I169
sS'width'
p11
I63
s(dp12
g10
I657
sg11
I67
stp13
sS'hhints'
p14
((dp15
g10
I1301
sg11
I88
s(dp16
g10
I1400
sg11
I79
stp17
ss."
HStem: 1301 88 1400 79
VStem: 169 63 657 67
AnchorPoint: "top" 494 1066 mark 0
LayerCount: 2
Fore
SplineSet
173 1294 m 257
 266 1294 l 257
 275 1365 299 1393 334 1393 c 256
 408 1393 526 1294 631 1294 c 256
 724 1294 783 1370 783 1507 c 257
 687 1507 l 257
 678 1442 657 1420 626 1420 c 256
 564 1420 461 1508 340 1508 c 256
 235 1508 173 1432 173 1294 c 257
EndSplineSet
EndChar

StartChar: trademark
Encoding: 8482 8482 359
Width: 2201
VWidth: 0
GlyphClass: 2
Flags: W
PickledData: "(dp1
S'org.robofab.postScriptHintData'
p2
(dp3
sS'com.typemytype.robofont.layerData'
p4
(dp5
S'b'
(dp6
S'name'
p7
S'trademark'
p8
sS'lib'
p9
(dp10
sS'unicodes'
p11
(tsS'width'
p12
I2216
sS'contours'
p13
(tsS'components'
p14
(tsS'anchors'
p15
(tsss."
LayerCount: 2
Fore
SplineSet
391 522 m 257
 537 522 l 257
 537 1338 l 257
 849 1338 l 257
 849 1456 l 257
 81 1456 l 257
 81 1338 l 257
 391 1338 l 257
 391 522 l 257
974 522 m 257
 1105 522 l 257
 1111 1267 l 257
 1414 633 l 257
 1517 633 l 257
 1821 1259 l 257
 1828 522 l 257
 1957 522 l 257
 1940 1456 l 257
 1791 1456 l 257
 1467 794 l 257
 1144 1456 l 257
 991 1456 l 257
 974 522 l 257
EndSplineSet
EndChar

StartChar: two
Encoding: 50 50 360
Width: 1260
VWidth: 0
GlyphClass: 2
Flags: W
PickledData: "(dp1
S'org.pippin.gimp.org.kernagic'
p2
(dp3
S'lstem'
p4
I0
sS'rstem'
p5
I0
ssS'com.typemytype.robofont.layerData'
p6
(dp7
sS'org.robofab.postScriptHintData'
p8
(dp9
s."
LayerCount: 2
Fore
SplineSet
267 1188 m 257
 342 1273 471 1323 594 1323 c 256
 747 1323 889 1242 889 1054 c 256
 889 894 827 828 686 690 c 258
 146 159 l 257
 175 0 l 257
 1038 0 l 257
 1047 152 l 257
 358 152 l 257
 797 571 l 258
 994 759 1065 857 1065 1059 c 256
 1065 1337 848 1476 597 1476 c 256
 427 1476 260 1409 159 1294 c 257
 248 1188 l 257
 267 1188 l 257
EndSplineSet
EndChar

StartChar: u
Encoding: 117 117 361
Width: 1207
VWidth: 0
GlyphClass: 2
Flags: W
PickledData: "(dp1
S'org.pippin.gimp.org.kernagic'
p2
(dp3
S'lstem'
p4
I0
sS'rstem'
p5
I0
ssS'com.typemytype.robofont.layerData'
p6
(dp7
sS'com.fontlab.hintData'
p8
(dp9
S'vhints'
p10
((dp11
S'position'
p12
I162
sS'width'
p13
I166
s(dp14
g12
I862
sg13
I166
stp15
sS'hhints'
p16
((dp17
g12
I-21
sg13
I126
stp18
ssS'org.robofab.postScriptHintData'
p19
(dp20
s."
HStem: -21 126
VStem: 162 166 862 166
AnchorPoint: "top" 617 1083 basechar 0
AnchorPoint: "ogonek" 960 1 basechar 0
AnchorPoint: "bot" 565 1 basechar 0
LayerCount: 2
Fore
SplineSet
861 259 m 257
 820 205 734 113 563 113 c 256
 393 113 331 221 331 408 c 258
 331 1082 l 257
 149 1082 l 257
 149 404 l 258
 149 121 282 -20 538 -20 c 256
 697 -20 803 44 875 135 c 257
 885 0 l 257
 1042 0 l 257
 1042 1082 l 257
 861 1082 l 257
 861 259 l 257
EndSplineSet
EndChar

StartChar: underscore
Encoding: 95 95 369
Width: 906
VWidth: 0
GlyphClass: 2
Flags: W
PickledData: "(dp1
S'org.pippin.gimp.org.kernagic'
p2
(dp3
S'lstem'
p4
I0
sS'rstem'
p5
I0
ssS'com.typemytype.robofont.layerData'
p6
(dp7
sS'org.robofab.postScriptHintData'
p8
(dp9
s."
LayerCount: 2
Fore
SplineSet
0 -263 m 257
 906 -263 l 257
 906 -134 l 257
 0 -134 l 257
 0 -263 l 257
EndSplineSet
EndChar

StartChar: uni00AD
Encoding: 173 173 372
Width: 880
VWidth: 0
GlyphClass: 2
Flags: W
PickledData: "(dp1
S'org.robofab.postScriptHintData'
p2
(dp3
s."
LayerCount: 2
Fore
SplineSet
105 494 m 257
 774 494 l 257
 774 637 l 257
 105 637 l 257
 105 494 l 257
EndSplineSet
EndChar

StartChar: uni00B2
Encoding: 178 178 373
Width: 785
VWidth: 0
GlyphClass: 2
Flags: W
PickledData: "(dp1
S'org.robofab.postScriptHintData'
p2
(dp3
sS'com.typemytype.robofont.layerData'
p4
(dp5
s."
LayerCount: 2
Fore
SplineSet
152 647 m 257
 666 647 l 257
 675 754 l 257
 337 754 l 257
 445 858 454 861 533 940 c 256
 625 1035 676 1124 676 1238 c 256
 676 1409 548 1501 408 1501 c 256
 277 1501 180 1455 112 1367 c 257
 175 1281 l 257
 229 1349 303 1387 400 1387 c 256
 486 1387 549 1326 549 1235 c 256
 549 1178 502 1106 436 1028 c 256
 308 887 256 858 152 754 c 257
 152 647 l 257
EndSplineSet
EndChar

StartChar: uni00B3
Encoding: 179 179 374
Width: 876
VWidth: 0
GlyphClass: 2
Flags: W
PickledData: "(dp1
S'org.robofab.postScriptHintData'
p2
(dp3
sS'com.typemytype.robofont.layerData'
p4
(dp5
s."
LayerCount: 2
Fore
SplineSet
437 629 m 256
 591 629 729 709 729 875 c 256
 729 984 662 1062 568 1084 c 257
 664 1106 718 1179 719 1277 c 256
 719 1435 594 1498 455 1498 c 256
 346 1498 240 1464 173 1405 c 257
 222 1323 l 257
 278 1368 350 1396 438 1396 c 256
 531 1396 601 1356 601 1267 c 256
 601 1186 553 1130 428 1130 c 258
 313 1130 l 257
 313 1032 l 257
 427 1033 l 257
 430 1033 l 258
 548 1033 613 970 613 878 c 256
 613 780 533 731 434 731 c 256
 341 731 267 762 219 808 c 257
 168 715 l 257
 234 659 335 629 437 629 c 256
EndSplineSet
EndChar

StartChar: uni00B5
Encoding: 181 181 375
Width: 1197
VWidth: 0
GlyphClass: 2
Flags: W
PickledData: "(dp1
S'org.robofab.postScriptHintData'
p2
(dp3
sS'com.typemytype.robofont.layerData'
p4
(dp5
s."
LayerCount: 2
Fore
SplineSet
146 638 m 257
 146 -288 l 257
 328 -288 l 257
 328 638 l 257
 146 638 l 257
EndSplineSet
Refer: 361 117 N 1 0 0 1 0 0 2
EndChar

StartChar: uni00B9
Encoding: 185 185 376
Width: 884
VWidth: 0
GlyphClass: 2
Flags: W
PickledData: "(dp1
S'org.robofab.postScriptHintData'
p2
(dp3
sS'com.typemytype.robofont.layerData'
p4
(dp5
s."
LayerCount: 2
Fore
SplineSet
262 629 m 257
 740 629 l 257
 740 741 l 257
 574 741 l 257
 574 1487 l 257
 462 1487 l 257
 425 1456 310 1401 256 1381 c 257
 256 1267 l 257
 289 1274 395 1319 433 1342 c 257
 433 741 l 257
 262 741 l 257
 262 629 l 257
EndSplineSet
EndChar

StartChar: uni02C9
Encoding: 713 713 445
Width: 600
VWidth: 0
GlyphClass: 4
Flags: W
PickledData: "(dp1
S'org.robofab.postScriptHintData'
p2
(dp3
s."
AnchorPoint: "top" 307 1066 mark 0
LayerCount: 2
Fore
SplineSet
-9 1316 m 257
 602 1316 l 257
 602 1447 l 257
 -9 1447 l 257
 -9 1316 l 257
EndSplineSet
EndChar

StartChar: uni0307
Encoding: 775 775 446
Width: 437
VWidth: 0
GlyphClass: 2
Flags: W
PickledData: "(dp1
S'org.robofab.postScriptHintData'
p2
(dp3
sS'com.typemytype.robofont.layerData'
p4
(dp5
s."
LayerCount: 2
Fore
SplineSet
351 1452 m 256
 351 1527 305 1571 224 1571 c 256
 143 1571 97 1527 97 1452 c 256
 97 1375 143 1330 224 1330 c 256
 305 1330 351 1375 351 1452 c 256
EndSplineSet
EndChar

StartChar: uni2074
Encoding: 8308 8308 465
Width: 701
VWidth: 0
GlyphClass: 2
Flags: W
PickledData: "(dp1
S'org.robofab.postScriptHintData'
p2
(dp3
sS'com.typemytype.robofont.layerData'
p4
(dp5
s."
LayerCount: 2
Fore
SplineSet
180 929 m 257
 410 1326 l 257
 409 929 l 257
 180 929 l 257
409 621 m 257
 534 621 l 257
 533 828 l 257
 648 828 l 257
 654 929 l 257
 535 929 l 257
 535 1489 l 257
 401 1489 l 257
 48 935 l 257
 48 828 l 257
 409 828 l 257
 409 621 l 257
EndSplineSet
EndChar

StartChar: uni2113
Encoding: 8467 8467 466
Width: 1218
VWidth: 0
GlyphClass: 2
Flags: W
PickledData: "(dp1
S'org.robofab.postScriptHintData'
p2
(dp3
s."
LayerCount: 2
Fore
SplineSet
632 804 m 257
 729 1178 l 258
 773 1350 789 1493 905 1528 c 256
 928 1535 948 1538 967 1538 c 256
 1061 1538 1102 1459 1102 1385 c 256
 1102 1216 1002 1097 842 970 c 258
 632 804 l 257
304 264 m 256
 304 63 406 -20 562 -20 c 256
 789 -20 940 98 940 98 c 257
 916 221 l 257
 813 166 723 133 642 133 c 256
 555 133 515 178 515 270 c 256
 515 310 522 359 537 417 c 258
 589 629 l 257
 883 865 l 258
 1127 1060 1222 1176 1222 1386 c 256
 1222 1593 1075 1688 922 1689 c 256
 786 1689 646 1622 584 1396 c 258
 379 639 l 257
 79 414 l 257
 125 334 l 257
 339 493 l 257
 315 405 304 328 304 264 c 256
EndSplineSet
EndChar

StartChar: uni2206
Encoding: 8710 8710 468
Width: 1283
VWidth: 0
GlyphClass: 2
Flags: W
PickledData: "(dp1
S'org.pippin.gimp.org.kernagic'
p2
(dp3
S'lstem'
p4
I0
sS'rstem'
p5
I0
ssS'com.typemytype.robofont.layerData'
p6
(dp7
S'b'
(dp8
S'name'
p9
S'uni2206'
p10
sS'lib'
p11
(dp12
sS'unicodes'
p13
(tsS'width'
p14
I1278
sS'contours'
p15
(tsS'components'
p16
(tsS'anchors'
p17
(tsssS'org.robofab.postScriptHintData'
p18
(dp19
s."
LayerCount: 2
Fore
SplineSet
672 1196 m 257
 1022 174 l 257
 262 174 l 257
 606 1196 l 257
 638 1314 l 257
 672 1196 l 257
549 1542 m 257
 66 85 l 257
 66 0 l 257
 1219 0 l 257
 1219 85 l 257
 736 1542 l 257
 549 1542 l 257
EndSplineSet
EndChar

StartChar: v
Encoding: 118 118 479
Width: 1081
VWidth: 0
GlyphClass: 2
Flags: W
PickledData: "(dp1
S'org.pippin.gimp.org.kernagic'
p2
(dp3
S'lstem'
p4
I0
sS'rstem'
p5
I0
ssS'com.typemytype.robofont.guides'
p6
((dp7
S'y'
I552
sS'x'
I438
sS'magnetic'
p8
I5
sS'angle'
p9
I0
sS'isGlobal'
p10
I00
stp11
sS'com.typemytype.robofont.layerData'
p12
(dp13
sS'org.robofab.postScriptHintData'
p14
(dp15
s."
LayerCount: 2
Fore
SplineSet
453 0 m 257
 638 0 l 257
 1024 1082 l 257
 841 1082 l 257
 744 792 646 502 548 212 c 257
 445 499 347 791 248 1082 c 257
 61 1082 l 257
 453 0 l 257
EndSplineSet
EndChar

StartChar: w
Encoding: 119 119 480
Width: 1508
VWidth: 0
GlyphClass: 2
Flags: W
PickledData: "(dp1
S'org.pippin.gimp.org.kernagic'
p2
(dp3
S'lstem'
p4
I0
sS'rstem'
p5
I0
ssS'com.typemytype.robofont.layerData'
p6
(dp7
sS'org.robofab.postScriptHintData'
p8
(dp9
s."
AnchorPoint: "top" 759 1082 basechar 0
LayerCount: 2
Fore
SplineSet
760 907 m 257
 1038 -1 l 257
 1202 -1 l 257
 1484 1082 l 257
 1318 1082 l 257
 1117 235 l 257
 851 1082 l 257
 661 1082 l 257
 411 238 l 257
 195 1082 l 257
 24 1082 l 257
 320 -1 l 257
 483 -1 l 257
 760 907 l 257
EndSplineSet
EndChar

StartChar: x
Encoding: 120 120 485
Width: 1058
VWidth: 0
GlyphClass: 2
Flags: W
PickledData: "(dp1
S'org.pippin.gimp.org.kernagic'
p2
(dp3
S'lstem'
p4
I0
sS'rstem'
p5
I0
ssS'com.typemytype.robofont.layerData'
p6
(dp7
sS'com.fontlab.hintData'
p8
(dp9
S'hhints'
p10
((dp11
S'position'
p12
I0
sS'width'
p13
I22
s(dp14
g12
I1034
sg13
I21
stp15
ssS'org.robofab.postScriptHintData'
p16
(dp17
s."
HStem: 0 22 1034 21
LayerCount: 2
Fore
SplineSet
633 550 m 257
 998 1082 l 257
 815 1082 l 257
 545 680 l 257
 276 1082 l 257
 74 1082 l 257
 432 548 l 257
 52 -1 l 257
 235 -1 l 257
 519 419 l 257
 800 -1 l 257
 1002 -1 l 257
 633 550 l 257
EndSplineSet
EndChar

StartChar: y
Encoding: 121 121 486
Width: 1131
VWidth: 0
GlyphClass: 2
Flags: W
PickledData: "(dp1
S'org.pippin.gimp.org.kernagic'
p2
(dp3
S'lstem'
p4
I0
sS'rstem'
p5
I0
ssS'com.typemytype.robofont.layerData'
p6
(dp7
sS'org.robofab.postScriptHintData'
p8
(dp9
s."
AnchorPoint: "top" 582 1082 basechar 0
LayerCount: 2
Fore
SplineSet
1083 1082 m 257
 908 1082 l 257
 579 243 l 257
 229 1082 l 257
 39 1082 l 257
 489 44 l 257
 329 -374 l 257
 485 -414 l 257
 1083 1082 l 257
EndSplineSet
EndChar

StartChar: yen
Encoding: 165 165 490
Width: 1364
VWidth: 0
GlyphClass: 2
Flags: W
PickledData: "(dp1
S'org.pippin.gimp.org.kernagic'
p2
(dp3
S'lstem'
p4
I0
sS'rstem'
p5
I0
ssS'com.typemytype.robofont.layerData'
p6
(dp7
S'b'
(dp8
S'name'
p9
S'yen'
p10
sS'lib'
p11
(dp12
sS'unicodes'
p13
(tsS'width'
p14
I1366
sS'contours'
p15
(tsS'components'
p16
(tsS'anchors'
p17
(tsssS'org.robofab.postScriptHintData'
p18
(dp19
s."
LayerCount: 2
Fore
SplineSet
259 509 m 257
 1081 509 l 257
 1081 620 l 257
 259 620 l 257
 259 509 l 257
259 256 m 257
 1081 256 l 257
 1081 366 l 257
 259 366 l 257
 259 256 l 257
EndSplineSet
Refer: 124 89 N 1 0 0 1 0 0 2
EndChar

StartChar: z
Encoding: 122 122 492
Width: 1012
VWidth: 0
GlyphClass: 2
Flags: W
PickledData: "(dp1
S'org.pippin.gimp.org.kernagic'
p2
(dp3
S'lstem'
p4
I0
sS'rstem'
p5
I0
ssS'com.typemytype.robofont.layerData'
p6
(dp7
sS'org.robofab.postScriptHintData'
p8
(dp9
s."
AnchorPoint: "top" 511 1082 basechar 0
AnchorPoint: "bot" 482 0 basechar 0
LayerCount: 2
Fore
SplineSet
121 1082 m 257
 126 952 l 257
 698 952 l 257
 101 116 l 257
 101 0 l 257
 899 0 l 257
 892 136 l 257
 303 136 l 257
 889 959 l 257
 889 1082 l 257
 121 1082 l 257
EndSplineSet
EndChar

StartChar: zero
Encoding: 48 48 496
Width: 1260
VWidth: 0
GlyphClass: 2
Flags: W
PickledData: "(dp1
S'org.pippin.gimp.org.kernagic'
p2
(dp3
S'lstem'
p4
I0
sS'rstem'
p5
I0
ssS'com.typemytype.robofont.layerData'
p6
(dp7
S'b'
(dp8
S'name'
p9
S'zero'
p10
sS'lib'
p11
(dp12
sS'unicodes'
p13
(tsS'width'
p14
I1248
sS'contours'
p15
(tsS'components'
p16
(tsS'anchors'
p17
(tsssS'org.robofab.postScriptHintData'
p18
(dp19
s."
LayerCount: 2
Fore
SplineSet
635 -20 m 256
 981 -20 1129 260 1129 705 c 256
 1129 1172 966 1476 635 1476 c 256
 303 1476 131 1171 131 705 c 256
 131 260 288 -20 635 -20 c 256
635 135 m 256
 439 135 317 296 317 710 c 256
 317 1106 439 1322 635 1322 c 256
 830 1322 943 1132 943 711 c 256
 943 296 830 135 635 135 c 256
EndSplineSet
EndChar
